<svg class="marks" width="660" height="345" viewBox="0 0 660 345" version="1.1" xmlns="http://www.w3.org/2000/svg" xmlns:xlink="http://www.w3.org/1999/xlink"><rect width="660" height="345" style="fill: white;"></rect><g transform="translate(55,5)"><g class="mark-group role-frame root"><g transform="translate(0,0)"><path class="background" d="M0.5,0.5h600v200h-600Z" style="fill: none; stroke: #ddd;"></path><g><g class="mark-group role-axis"><g transform="translate(0.5,200.5)"><path class="background" d="M0,0h0v0h0Z" style="pointer-events: none; fill: none;"></path><g><g class="mark-rule role-axis-grid" style="pointer-events: none;"><line transform="translate(11,-200)" x2="0" y2="200" style="fill: none; stroke: #ddd; stroke-width: 1; opacity: 1;"></line><line transform="translate(33,-200)" x2="0" y2="200" style="fill: none; stroke: #ddd; stroke-width: 1; opacity: 1;"></line><line transform="translate(56,-200)" x2="0" y2="200" style="fill: none; stroke: #ddd; stroke-width: 1; opacity: 1;"></line><line transform="translate(78,-200)" x2="0" y2="200" style="fill: none; stroke: #ddd; stroke-width: 1; opacity: 1;"></line><line transform="translate(100,-200)" x2="0" y2="200" style="fill: none; stroke: #ddd; stroke-width: 1; opacity: 1;"></line><line transform="translate(122,-200)" x2="0" y2="200" style="fill: none; stroke: #ddd; stroke-width: 1; opacity: 1;"></line><line transform="translate(144,-200)" x2="0" y2="200" style="fill: none; stroke: #ddd; stroke-width: 1; opacity: 1;"></line><line transform="translate(167,-200)" x2="0" y2="200" style="fill: none; stroke: #ddd; stroke-width: 1; opacity: 1;"></line><line transform="translate(189,-200)" x2="0" y2="200" style="fill: none; stroke: #ddd; stroke-width: 1; opacity: 1;"></line><line transform="translate(211,-200)" x2="0" y2="200" style="fill: none; stroke: #ddd; stroke-width: 1; opacity: 1;"></line><line transform="translate(233,-200)" x2="0" y2="200" style="fill: none; stroke: #ddd; stroke-width: 1; opacity: 1;"></line><line transform="translate(256,-200)" x2="0" y2="200" style="fill: none; stroke: #ddd; stroke-width: 1; opacity: 1;"></line><line transform="translate(278,-200)" x2="0" y2="200" style="fill: none; stroke: #ddd; stroke-width: 1; opacity: 1;"></line><line transform="translate(300,-200)" x2="0" y2="200" style="fill: none; stroke: #ddd; stroke-width: 1; opacity: 1;"></line><line transform="translate(322,-200)" x2="0" y2="200" style="fill: none; stroke: #ddd; stroke-width: 1; opacity: 1;"></line><line transform="translate(344,-200)" x2="0" y2="200" style="fill: none; stroke: #ddd; stroke-width: 1; opacity: 1;"></line><line transform="translate(367,-200)" x2="0" y2="200" style="fill: none; stroke: #ddd; stroke-width: 1; opacity: 1;"></line><line transform="translate(389,-200)" x2="0" y2="200" style="fill: none; stroke: #ddd; stroke-width: 1; opacity: 1;"></line><line transform="translate(411,-200)" x2="0" y2="200" style="fill: none; stroke: #ddd; stroke-width: 1; opacity: 1;"></line><line transform="translate(433,-200)" x2="0" y2="200" style="fill: none; stroke: #ddd; stroke-width: 1; opacity: 1;"></line><line transform="translate(456,-200)" x2="0" y2="200" style="fill: none; stroke: #ddd; stroke-width: 1; opacity: 1;"></line><line transform="translate(478,-200)" x2="0" y2="200" style="fill: none; stroke: #ddd; stroke-width: 1; opacity: 1;"></line><line transform="translate(500,-200)" x2="0" y2="200" style="fill: none; stroke: #ddd; stroke-width: 1; opacity: 1;"></line><line transform="translate(522,-200)" x2="0" y2="200" style="fill: none; stroke: #ddd; stroke-width: 1; opacity: 1;"></line><line transform="translate(544,-200)" x2="0" y2="200" style="fill: none; stroke: #ddd; stroke-width: 1; opacity: 1;"></line><line transform="translate(567,-200)" x2="0" y2="200" style="fill: none; stroke: #ddd; stroke-width: 1; opacity: 1;"></line><line transform="translate(589,-200)" x2="0" y2="200" style="fill: none; stroke: #ddd; stroke-width: 1; opacity: 1;"></line></g></g><path class="foreground" d="" style="pointer-events: none; display: none; fill: none;"></path></g></g><g class="mark-group role-axis"><g transform="translate(0.5,0.5)"><path class="background" d="M0,0h0v0h0Z" style="pointer-events: none; fill: none;"></path><g><g class="mark-rule role-axis-grid" style="pointer-events: none;"><line transform="translate(0,200)" x2="600" y2="0" style="fill: none; stroke: #ddd; stroke-width: 1; opacity: 1;"></line><line transform="translate(0,173)" x2="600" y2="0" style="fill: none; stroke: #ddd; stroke-width: 1; opacity: 1;"></line><line transform="translate(0,147)" x2="600" y2="0" style="fill: none; stroke: #ddd; stroke-width: 1; opacity: 1;"></line><line transform="translate(0,120)" x2="600" y2="0" style="fill: none; stroke: #ddd; stroke-width: 1; opacity: 1;"></line><line transform="translate(0,93)" x2="600" y2="0" style="fill: none; stroke: #ddd; stroke-width: 1; opacity: 1;"></line><line transform="translate(0,67)" x2="600" y2="0" style="fill: none; stroke: #ddd; stroke-width: 1; opacity: 1;"></line><line transform="translate(0,40)" x2="600" y2="0" style="fill: none; stroke: #ddd; stroke-width: 1; opacity: 1;"></line><line transform="translate(0,13)" x2="600" y2="0" style="fill: none; stroke: #ddd; stroke-width: 1; opacity: 1;"></line></g></g><path class="foreground" d="" style="pointer-events: none; display: none; fill: none;"></path></g></g><g class="mark-group role-axis"><g transform="translate(0.5,200.5)"><path class="background" d="M0,0h0v0h0Z" style="pointer-events: none; fill: none;"></path><g><g class="mark-rule role-axis-tick" style="pointer-events: none;"><line transform="translate(11,0)" x2="0" y2="5" style="fill: none; stroke: #888; stroke-width: 1; opacity: 1;"></line><line transform="translate(33,0)" x2="0" y2="5" style="fill: none; stroke: #888; stroke-width: 1; opacity: 1;"></line><line transform="translate(56,0)" x2="0" y2="5" style="fill: none; stroke: #888; stroke-width: 1; opacity: 1;"></line><line transform="translate(78,0)" x2="0" y2="5" style="fill: none; stroke: #888; stroke-width: 1; opacity: 1;"></line><line transform="translate(100,0)" x2="0" y2="5" style="fill: none; stroke: #888; stroke-width: 1; opacity: 1;"></line><line transform="translate(122,0)" x2="0" y2="5" style="fill: none; stroke: #888; stroke-width: 1; opacity: 1;"></line><line transform="translate(144,0)" x2="0" y2="5" style="fill: none; stroke: #888; stroke-width: 1; opacity: 1;"></line><line transform="translate(167,0)" x2="0" y2="5" style="fill: none; stroke: #888; stroke-width: 1; opacity: 1;"></line><line transform="translate(189,0)" x2="0" y2="5" style="fill: none; stroke: #888; stroke-width: 1; opacity: 1;"></line><line transform="translate(211,0)" x2="0" y2="5" style="fill: none; stroke: #888; stroke-width: 1; opacity: 1;"></line><line transform="translate(233,0)" x2="0" y2="5" style="fill: none; stroke: #888; stroke-width: 1; opacity: 1;"></line><line transform="translate(256,0)" x2="0" y2="5" style="fill: none; stroke: #888; stroke-width: 1; opacity: 1;"></line><line transform="translate(278,0)" x2="0" y2="5" style="fill: none; stroke: #888; stroke-width: 1; opacity: 1;"></line><line transform="translate(300,0)" x2="0" y2="5" style="fill: none; stroke: #888; stroke-width: 1; opacity: 1;"></line><line transform="translate(322,0)" x2="0" y2="5" style="fill: none; stroke: #888; stroke-width: 1; opacity: 1;"></line><line transform="translate(344,0)" x2="0" y2="5" style="fill: none; stroke: #888; stroke-width: 1; opacity: 1;"></line><line transform="translate(367,0)" x2="0" y2="5" style="fill: none; stroke: #888; stroke-width: 1; opacity: 1;"></line><line transform="translate(389,0)" x2="0" y2="5" style="fill: none; stroke: #888; stroke-width: 1; opacity: 1;"></line><line transform="translate(411,0)" x2="0" y2="5" style="fill: none; stroke: #888; stroke-width: 1; opacity: 1;"></line><line transform="translate(433,0)" x2="0" y2="5" style="fill: none; stroke: #888; stroke-width: 1; opacity: 1;"></line><line transform="translate(456,0)" x2="0" y2="5" style="fill: none; stroke: #888; stroke-width: 1; opacity: 1;"></line><line transform="translate(478,0)" x2="0" y2="5" style="fill: none; stroke: #888; stroke-width: 1; opacity: 1;"></line><line transform="translate(500,0)" x2="0" y2="5" style="fill: none; stroke: #888; stroke-width: 1; opacity: 1;"></line><line transform="translate(522,0)" x2="0" y2="5" style="fill: none; stroke: #888; stroke-width: 1; opacity: 1;"></line><line transform="translate(544,0)" x2="0" y2="5" style="fill: none; stroke: #888; stroke-width: 1; opacity: 1;"></line><line transform="translate(567,0)" x2="0" y2="5" style="fill: none; stroke: #888; stroke-width: 1; opacity: 1;"></line><line transform="translate(589,0)" x2="0" y2="5" style="fill: none; stroke: #888; stroke-width: 1; opacity: 1;"></line></g><g class="mark-text role-axis-label" style="pointer-events: none;"><text text-anchor="end" transform="translate(11.111111111111143,7) rotate(315) translate(0,8)" style="font-family: CM Mono; font-size: 10px; fill: #000; opacity: 1;">Drum memory</text><text text-anchor="end" transform="translate(33.333333333333364,7) rotate(315) translate(0,8)" style="font-family: CM Mono; font-size: 10px; fill: #000; opacity: 1;">Williams-Kilburn Tube</text><text text-anchor="end" transform="translate(55.555555555555586,7) rotate(315) translate(0,8)" style="font-family: CM Mono; font-size: 10px; fill: #000; opacity: 1;">Magnetic-core memory</text><text text-anchor="end" transform="translate(77.7777777777778,7) rotate(315) translate(0,8)" style="font-family: CM Mono; font-size: 10px; fill: #000; opacity: 1;">Magnetic Band (Tape)</text><text text-anchor="end" transform="translate(100.00000000000003,7) rotate(315) translate(0,8)" style="font-family: CM Mono; font-size: 10px; fill: #000; opacity: 1;">Hard Disk Drive (HDD)</text><text text-anchor="end" transform="translate(122.22222222222226,7) rotate(315) translate(0,8)" style="font-family: CM Mono; font-size: 10px; fill: #000; opacity: 1;">Magnetic stripe card</text><text text-anchor="end" transform="translate(144.44444444444446,7) rotate(315) translate(0,8)" style="font-family: CM Mono; font-size: 10px; fill: #000; opacity: 1;">Floppy Disk</text><text text-anchor="end" transform="translate(166.66666666666669,7) rotate(315) translate(0,8)" style="font-family: CM Mono; font-size: 10px; fill: #000; opacity: 1;">Bubble Memory</text><text text-anchor="end" transform="translate(188.8888888888889,7) rotate(315) translate(0,8)" style="font-family: CM Mono; font-size: 10px; fill: #000; opacity: 1;">LaserDisc (LD)/Discovision (DV)</text><text text-anchor="end" transform="translate(211.11111111111114,7) rotate(315) translate(0,8)" style="font-family: CM Mono; font-size: 10px; fill: #000; opacity: 1;">Solid-State-Drive (SSD)</text><text text-anchor="end" transform="translate(233.33333333333337,7) rotate(315) translate(0,8)" style="font-family: CM Mono; font-size: 10px; fill: #000; opacity: 1;">Compact Disc (CD)</text><text text-anchor="end" transform="translate(255.55555555555557,7) rotate(315) translate(0,8)" style="font-family: CM Mono; font-size: 10px; fill: #000; opacity: 1;">Digital Audio Tape (DAT)</text><text text-anchor="end" transform="translate(277.77777777777777,7) rotate(315) translate(0,8)" style="font-family: CM Mono; font-size: 10px; fill: #000; opacity: 1;">Mini-Disc</text><text text-anchor="end" transform="translate(300,7) rotate(315) translate(0,8)" style="font-family: CM Mono; font-size: 10px; fill: #000; opacity: 1;">Zip Drive</text><text text-anchor="end" transform="translate(322.22222222222223,7) rotate(315) translate(0,8)" style="font-family: CM Mono; font-size: 10px; fill: #000; opacity: 1;">CompactFlash (CF)</text><text text-anchor="end" transform="translate(344.44444444444446,7) rotate(315) translate(0,8)" style="font-family: CM Mono; font-size: 10px; fill: #000; opacity: 1;">Digital Compact Cassette (DCC)</text><text text-anchor="end" transform="translate(366.6666666666667,7) rotate(315) translate(0,8)" style="font-family: CM Mono; font-size: 10px; fill: #000; opacity: 1;">Digital Versatile Disc (DVD)</text><text text-anchor="end" transform="translate(388.8888888888889,7) rotate(315) translate(0,8)" style="font-family: CM Mono; font-size: 10px; fill: #000; opacity: 1;">USB Flash Disk</text><text text-anchor="end" transform="translate(411.11111111111114,7) rotate(315) translate(0,8)" style="font-family: CM Mono; font-size: 10px; fill: #000; opacity: 1;">Secure Digital (SD) card</text><text text-anchor="end" transform="translate(433.33333333333337,7) rotate(315) translate(0,8)" style="font-family: CM Mono; font-size: 10px; fill: #000; opacity: 1;">Blu-ray Disc (BD)</text><text text-anchor="end" transform="translate(455.5555555555556,7) rotate(315) translate(0,8)" style="font-family: CM Mono; font-size: 10px; fill: #000; opacity: 1;">Holographic Versatile Disc (HVD)</text><text text-anchor="end" transform="translate(477.77777777777777,7) rotate(315) translate(0,8)" style="font-family: CM Mono; font-size: 10px; fill: #000; opacity: 1;">Millennial Disc (M-DISC)</text><text text-anchor="end" transform="translate(500,7) rotate(315) translate(0,8)" style="font-family: CM Mono; font-size: 10px; fill: #000; opacity: 1;">Cell cultures</text><text text-anchor="end" transform="translate(522.2222222222222,7) rotate(315) translate(0,8)" style="font-family: CM Mono; font-size: 10px; fill: #000; opacity: 1;">Colloidal particle clusters</text><text text-anchor="end" transform="translate(544.4444444444443,7) rotate(315) translate(0,8)" style="font-family: CM Mono; font-size: 10px; fill: #000; opacity: 1;">Chlorine Atomic memory</text><text text-anchor="end" transform="translate(566.6666666666667,7) rotate(315) translate(0,8)" style="font-family: CM Mono; font-size: 10px; fill: #000; opacity: 1;">Synthetic DNA</text><text text-anchor="end" transform="translate(588.8888888888889,7) rotate(315) translate(0,8)" style="font-family: CM Mono; font-size: 10px; fill: #000; opacity: 1;">Synthetic Metabolomes</text></g><g class="mark-rule role-axis-domain" style="pointer-events: none;"><line transform="translate(0,0)" x2="600" y2="0" style="fill: none; stroke: #888; stroke-width: 1; opacity: 1;"></line></g></g><path class="foreground" d="" style="pointer-events: none; display: none; fill: none;"></path></g></g><g class="mark-group role-axis"><g transform="translate(0.5,0.5)"><path class="background" d="M0,0h0v0h0Z" style="pointer-events: none; fill: none;"></path><g><g class="mark-rule role-axis-tick" style="pointer-events: none;"><line transform="translate(0,200)" x2="-5" y2="0" style="fill: none; stroke: #888; stroke-width: 1; opacity: 1;"></line><line transform="translate(0,173)" x2="-5" y2="0" style="fill: none; stroke: #888; stroke-width: 1; opacity: 1;"></line><line transform="translate(0,147)" x2="-5" y2="0" style="fill: none; stroke: #888; stroke-width: 1; opacity: 1;"></line><line transform="translate(0,120)" x2="-5" y2="0" style="fill: none; stroke: #888; stroke-width: 1; opacity: 1;"></line><line transform="translate(0,93)" x2="-5" y2="0" style="fill: none; stroke: #888; stroke-width: 1; opacity: 1;"></line><line transform="translate(0,67)" x2="-5" y2="0" style="fill: none; stroke: #888; stroke-width: 1; opacity: 1;"></line><line transform="translate(0,40)" x2="-5" y2="0" style="fill: none; stroke: #888; stroke-width: 1; opacity: 1;"></line><line transform="translate(0,13)" x2="-5" y2="0" style="fill: none; stroke: #888; stroke-width: 1; opacity: 1;"></line></g><g class="mark-text role-axis-label" style="pointer-events: none;"><text text-anchor="end" transform="translate(-7,203)" style="font-family: CM Mono; font-size: 10px; fill: #000; opacity: 1;">1.0e+0</text><text text-anchor="end" transform="translate(-7,176.33333333333334)" style="font-family: CM Mono; font-size: 10px; fill: #000; opacity: 1;">1.0e+2</text><text text-anchor="end" transform="translate(-7,149.66666666666666)" style="font-family: CM Mono; font-size: 10px; fill: #000; opacity: 1;">1.0e+4</text><text text-anchor="end" transform="translate(-7,123)" style="font-family: CM Mono; font-size: 10px; fill: #000; opacity: 1;">1.0e+6</text><text text-anchor="end" transform="translate(-7,96.33333333333331)" style="font-family: CM Mono; font-size: 10px; fill: #000; opacity: 1;">1.0e+8</text><text text-anchor="end" transform="translate(-7,69.66666666666666)" style="font-family: CM Mono; font-size: 10px; fill: #000; opacity: 1;">1.0e+10</text><text text-anchor="end" transform="translate(-7,42.99999999999999)" style="font-family: CM Mono; font-size: 10px; fill: #000; opacity: 1;">1.0e+12</text><text text-anchor="end" transform="translate(-7,16.33333333333333)" style="font-family: CM Mono; font-size: 10px; fill: #000; opacity: 1;">1.0e+14</text></g><g class="mark-rule role-axis-domain" style="pointer-events: none;"><line transform="translate(0,200)" x2="0" y2="-200" style="fill: none; stroke: #888; stroke-width: 1; opacity: 1;"></line></g></g><path class="foreground" d="" style="pointer-events: none; display: none; fill: none;"></path></g></g><g class="mark-symbol role-mark layer_0_marks"><path transform="translate(11.111111111111143,136.05493310207902)" d="M5,0A5,5,0,1,1,-5,0A5,5,0,1,1,5,0" style="fill: #2476B6; stroke-width: 2; opacity: 1;"></path><path transform="translate(33.333333333333364,160)" d="M5,0A5,5,0,1,1,-5,0A5,5,0,1,1,5,0" style="fill: #CD7DA9; stroke-width: 2; opacity: 1;"></path><path transform="translate(55.555555555555586,133.33333333333331)" d="M5,0A5,5,0,1,1,-5,0A5,5,0,1,1,5,0" style="fill: #2476B6; stroke-width: 2; opacity: 1;"></path><path transform="translate(77.7777777777778,6.419814134961466)" d="M5,0A5,5,0,1,1,-5,0A5,5,0,1,1,5,0" style="fill: #2476B6; stroke-width: 2; opacity: 1;"></path><path transform="translate(100.00000000000003,35.986266724480245)" d="M5,0A5,5,0,1,1,-5,0A5,5,0,1,1,5,0" style="fill: #2476B6; stroke-width: 2; opacity: 1;"></path><path transform="translate(122.22222222222226,169.3196000578136)" d="M5,0A5,5,0,1,1,-5,0A5,5,0,1,1,5,0" style="fill: #2476B6; stroke-width: 2; opacity: 1;"></path><path transform="translate(144.44444444444446,117.88850010539666)" d="M5,0A5,5,0,1,1,-5,0A5,5,0,1,1,5,0" style="fill: #2476B6; stroke-width: 2; opacity: 1;"></path><path transform="translate(166.66666666666669,132.04119982655925)" d="M5,0A5,5,0,1,1,-5,0A5,5,0,1,1,5,0" style="fill: #2476B6; stroke-width: 2; opacity: 1;"></path><path transform="translate(188.8888888888889,86.5260665305785)" d="M5,0A5,5,0,1,1,-5,0A5,5,0,1,1,5,0" style="fill: #BCBCBC; stroke-width: 2; opacity: 1;"></path><path transform="translate(211.11111111111114,13.33333333333333)" d="M5,0A5,5,0,1,1,-5,0A5,5,0,1,1,5,0" style="fill: #E6A02E; stroke-width: 2; opacity: 1;"></path><path transform="translate(233.33333333333337,82.06535946647658)" d="M5,0A5,5,0,1,1,-5,0A5,5,0,1,1,5,0" style="fill: #BCBCBC; stroke-width: 2; opacity: 1;"></path><path transform="translate(255.55555555555557,127.890133795842)" d="M5,0A5,5,0,1,1,-5,0A5,5,0,1,1,5,0" style="fill: #D73F47; stroke-width: 2; opacity: 1;"></path><path transform="translate(277.77777777777777,91.38495952429015)" d="M5,0A5,5,0,1,1,-5,0A5,5,0,1,1,5,0" style="fill: none; stroke-width: 2; opacity: 1;"></path><path transform="translate(300,93.60784289820754)" d="M5,0A5,5,0,1,1,-5,0A5,5,0,1,1,5,0" style="fill: #2476B6; stroke-width: 2; opacity: 1;"></path><path transform="translate(322.22222222222223,47.89013379584199)" d="M5,0A5,5,0,1,1,-5,0A5,5,0,1,1,5,0" style="fill: #E6A02E; stroke-width: 2; opacity: 1;"></path><path transform="translate(344.44444444444446,88.0274665510395)" d="M5,0A5,5,0,1,1,-5,0A5,5,0,1,1,5,0" style="fill: #2476B6; stroke-width: 2; opacity: 1;"></path><path transform="translate(366.6666666666667,71.29049981632876)" d="M5,0A5,5,0,1,1,-5,0A5,5,0,1,1,5,0" style="fill: #BCBCBC; stroke-width: 2; opacity: 1;"></path><path transform="translate(388.8888888888889,35.986266724480245)" d="M5,0A5,5,0,1,1,-5,0A5,5,0,1,1,5,0" style="fill: #E6A02E; stroke-width: 2; opacity: 1;"></path><path transform="translate(411.11111111111114,35.986266724480245)" d="M5,0A5,5,0,1,1,-5,0A5,5,0,1,1,5,0" style="fill: #E6A02E; stroke-width: 2; opacity: 1;"></path><path transform="translate(433.33333333333337,51.903867071361745)" d="M5,0A5,5,0,1,1,-5,0A5,5,0,1,1,5,0" style="fill: #BCBCBC; stroke-width: 2; opacity: 1;"></path><path transform="translate(455.5555555555556,49.319600057813574)" d="M5,0A5,5,0,1,1,-5,0A5,5,0,1,1,5,0" style="fill: #BCBCBC; stroke-width: 2; opacity: 1;"></path><path transform="translate(477.77777777777777,53.33333333333332)" d="M5,0A5,5,0,1,1,-5,0A5,5,0,1,1,5,0" style="fill: #BCBCBC; stroke-width: 2; opacity: 1;"></path><path transform="translate(500,124.6885331869209)" d="M5,0A5,5,0,1,1,-5,0A5,5,0,1,1,5,0" style="fill: none; stroke-width: 2; opacity: 1;"></path><path transform="translate(522.2222222222222,200)" d="M5,0A5,5,0,1,1,-5,0A5,5,0,1,1,5,0" style="fill: none; stroke-width: 2; opacity: 1;"></path><path transform="translate(544.4444444444443,160)" d="M5,0A5,5,0,1,1,-5,0A5,5,0,1,1,5,0" style="fill: none; stroke-width: 2; opacity: 1;"></path><path transform="translate(566.6666666666667,102.10103092237057)" d="M5,0A5,5,0,1,1,-5,0A5,5,0,1,1,5,0" style="fill: none; stroke-width: 2; opacity: 1;"></path><path transform="translate(588.8888888888889,135.3986927998099)" d="M5,0A5,5,0,1,1,-5,0A5,5,0,1,1,5,0" style="fill: none; stroke-width: 2; opacity: 1;"></path></g><g class="mark-symbol role-mark layer_1_marks"><path transform="translate(277.77777777777777,91.38495952429015)" d="M3.872983346207417,0A3.872983346207417,3.872983346207417,0,1,1,-3.872983346207417,0A3.872983346207417,3.872983346207417,0,1,1,3.872983346207417,0" style="fill: #BCBCBC; stroke: #2476B6; stroke-width: 2; opacity: 1;"></path></g><g class="mark-symbol role-mark layer_2_marks"><path transform="translate(522.2222222222222,200)" d="M3.872983346207417,0A3.872983346207417,3.872983346207417,0,1,1,-3.872983346207417,0A3.872983346207417,3.872983346207417,0,1,1,3.872983346207417,0" style="fill: white; stroke: #BCBCBC; stroke-width: 2; opacity: 1;"></path><path transform="translate(544.4444444444443,160)" d="M3.872983346207417,0A3.872983346207417,3.872983346207417,0,1,1,-3.872983346207417,0A3.872983346207417,3.872983346207417,0,1,1,3.872983346207417,0" style="fill: white; stroke: #BCBCBC; stroke-width: 2; opacity: 1;"></path></g><g class="mark-symbol role-mark layer_3_marks"><path transform="translate(500,124.6885331869209)" d="M3.872983346207417,0A3.872983346207417,3.872983346207417,0,1,1,-3.872983346207417,0A3.872983346207417,3.872983346207417,0,1,1,3.872983346207417,0" style="fill: white; stroke: black; stroke-width: 2; opacity: 1;"></path><path transform="translate(566.6666666666667,102.10103092237057)" d="M3.872983346207417,0A3.872983346207417,3.872983346207417,0,1,1,-3.872983346207417,0A3.872983346207417,3.872983346207417,0,1,1,3.872983346207417,0" style="fill: white; stroke: black; stroke-width: 2; opacity: 1;"></path><path transform="translate(588.8888888888889,135.3986927998099)" d="M3.872983346207417,0A3.872983346207417,3.872983346207417,0,1,1,-3.872983346207417,0A3.872983346207417,3.872983346207417,0,1,1,3.872983346207417,0" style="fill: white; stroke: black; stroke-width: 2; opacity: 1;"></path></g></g><path class="foreground" d="" style="display: none; fill: none;"></path></g></g></g></svg>