<svg xmlns="http://www.w3.org/2000/svg" xmlns:xlink="http://www.w3.org/1999/xlink" version="1.1" class="marks" width="788" height="567" viewBox="0 0 788 567"><rect width="788" height="567" fill="white"/><g fill="none" stroke-miterlimit="10" transform="translate(177,5)"><g class="mark-group role-frame root" role="graphics-object" aria-roledescription="group mark container"><g transform="translate(0,0)"><path class="background" aria-hidden="true" d="M0.5,0.5h600v540h-600Z" stroke="#ddd"/><g><g class="mark-group role-axis" aria-hidden="true"><g transform="translate(0.5,540.5)"><path class="background" aria-hidden="true" d="M0,0h0v0h0Z" pointer-events="none"/><g><g class="mark-rule role-axis-grid" pointer-events="none"><line transform="translate(0,0)" x2="0" y2="-540" stroke="#ddd" stroke-width="1" opacity="1"/><line transform="translate(13,0)" x2="0" y2="-540" stroke="#ddd" stroke-width="1" opacity="1"/><line transform="translate(27,0)" x2="0" y2="-540" stroke="#ddd" stroke-width="1" opacity="1"/><line transform="translate(40,0)" x2="0" y2="-540" stroke="#ddd" stroke-width="1" opacity="1"/><line transform="translate(54,0)" x2="0" y2="-540" stroke="#ddd" stroke-width="1" opacity="1"/><line transform="translate(67,0)" x2="0" y2="-540" stroke="#ddd" stroke-width="1" opacity="1"/><line transform="translate(81,0)" x2="0" y2="-540" stroke="#ddd" stroke-width="1" opacity="1"/><line transform="translate(94,0)" x2="0" y2="-540" stroke="#ddd" stroke-width="1" opacity="1"/><line transform="translate(108,0)" x2="0" y2="-540" stroke="#ddd" stroke-width="1" opacity="1"/><line transform="translate(121,0)" x2="0" y2="-540" stroke="#ddd" stroke-width="1" opacity="1"/><line transform="translate(135,0)" x2="0" y2="-540" stroke="#ddd" stroke-width="1" opacity="1"/><line transform="translate(148,0)" x2="0" y2="-540" stroke="#ddd" stroke-width="1" opacity="1"/><line transform="translate(162,0)" x2="0" y2="-540" stroke="#ddd" stroke-width="1" opacity="1"/><line transform="translate(175,0)" x2="0" y2="-540" stroke="#ddd" stroke-width="1" opacity="1"/><line transform="translate(189,0)" x2="0" y2="-540" stroke="#ddd" stroke-width="1" opacity="1"/><line transform="translate(202,0)" x2="0" y2="-540" stroke="#ddd" stroke-width="1" opacity="1"/><line transform="translate(216,0)" x2="0" y2="-540" stroke="#ddd" stroke-width="1" opacity="1"/><line transform="translate(229,0)" x2="0" y2="-540" stroke="#ddd" stroke-width="1" opacity="1"/><line transform="translate(243,0)" x2="0" y2="-540" stroke="#ddd" stroke-width="1" opacity="1"/><line transform="translate(256,0)" x2="0" y2="-540" stroke="#ddd" stroke-width="1" opacity="1"/><line transform="translate(270,0)" x2="0" y2="-540" stroke="#ddd" stroke-width="1" opacity="1"/><line transform="translate(283,0)" x2="0" y2="-540" stroke="#ddd" stroke-width="1" opacity="1"/><line transform="translate(297,0)" x2="0" y2="-540" stroke="#ddd" stroke-width="1" opacity="1"/><line transform="translate(310,0)" x2="0" y2="-540" stroke="#ddd" stroke-width="1" opacity="1"/><line transform="translate(324,0)" x2="0" y2="-540" stroke="#ddd" stroke-width="1" opacity="1"/><line transform="translate(337,0)" x2="0" y2="-540" stroke="#ddd" stroke-width="1" opacity="1"/><line transform="translate(351,0)" x2="0" y2="-540" stroke="#ddd" stroke-width="1" opacity="1"/><line transform="translate(364,0)" x2="0" y2="-540" stroke="#ddd" stroke-width="1" opacity="1"/><line transform="translate(378,0)" x2="0" y2="-540" stroke="#ddd" stroke-width="1" opacity="1"/><line transform="translate(391,0)" x2="0" y2="-540" stroke="#ddd" stroke-width="1" opacity="1"/><line transform="translate(404,0)" x2="0" y2="-540" stroke="#ddd" stroke-width="1" opacity="1"/><line transform="translate(418,0)" x2="0" y2="-540" stroke="#ddd" stroke-width="1" opacity="1"/><line transform="translate(431,0)" x2="0" y2="-540" stroke="#ddd" stroke-width="1" opacity="1"/><line transform="translate(445,0)" x2="0" y2="-540" stroke="#ddd" stroke-width="1" opacity="1"/><line transform="translate(458,0)" x2="0" y2="-540" stroke="#ddd" stroke-width="1" opacity="1"/><line transform="translate(472,0)" x2="0" y2="-540" stroke="#ddd" stroke-width="1" opacity="1"/><line transform="translate(485,0)" x2="0" y2="-540" stroke="#ddd" stroke-width="1" opacity="1"/><line transform="translate(499,0)" x2="0" y2="-540" stroke="#ddd" stroke-width="1" opacity="1"/><line transform="translate(512,0)" x2="0" y2="-540" stroke="#ddd" stroke-width="1" opacity="1"/><line transform="translate(526,0)" x2="0" y2="-540" stroke="#ddd" stroke-width="1" opacity="1"/><line transform="translate(539,0)" x2="0" y2="-540" stroke="#ddd" stroke-width="1" opacity="1"/><line transform="translate(553,0)" x2="0" y2="-540" stroke="#ddd" stroke-width="1" opacity="1"/><line transform="translate(566,0)" x2="0" y2="-540" stroke="#ddd" stroke-width="1" opacity="1"/><line transform="translate(580,0)" x2="0" y2="-540" stroke="#ddd" stroke-width="1" opacity="1"/><line transform="translate(593,0)" x2="0" y2="-540" stroke="#ddd" stroke-width="1" opacity="1"/></g></g><path class="foreground" aria-hidden="true" d="" pointer-events="none" display="none"/></g></g><g class="mark-group role-axis" role="graphics-symbol" aria-roledescription="axis" aria-label="X-axis for a time scale with values from Friday, 01 January 1932, 12:00:00 AM to Friday, 01 January 2021, 12:00:00 AM"><g transform="translate(0.5,540.5)"><path class="background" aria-hidden="true" d="M0,0h0v0h0Z" pointer-events="none"/><g><g class="mark-rule role-axis-tick" pointer-events="none"><line transform="translate(0,0)" x2="0" y2="5" stroke="#888" stroke-width="1" opacity="1"/><line transform="translate(13,0)" x2="0" y2="5" stroke="#888" stroke-width="1" opacity="1"/><line transform="translate(27,0)" x2="0" y2="5" stroke="#888" stroke-width="1" opacity="1"/><line transform="translate(40,0)" x2="0" y2="5" stroke="#888" stroke-width="1" opacity="1"/><line transform="translate(54,0)" x2="0" y2="5" stroke="#888" stroke-width="1" opacity="1"/><line transform="translate(67,0)" x2="0" y2="5" stroke="#888" stroke-width="1" opacity="1"/><line transform="translate(81,0)" x2="0" y2="5" stroke="#888" stroke-width="1" opacity="1"/><line transform="translate(94,0)" x2="0" y2="5" stroke="#888" stroke-width="1" opacity="1"/><line transform="translate(108,0)" x2="0" y2="5" stroke="#888" stroke-width="1" opacity="1"/><line transform="translate(121,0)" x2="0" y2="5" stroke="#888" stroke-width="1" opacity="1"/><line transform="translate(135,0)" x2="0" y2="5" stroke="#888" stroke-width="1" opacity="1"/><line transform="translate(148,0)" x2="0" y2="5" stroke="#888" stroke-width="1" opacity="1"/><line transform="translate(162,0)" x2="0" y2="5" stroke="#888" stroke-width="1" opacity="1"/><line transform="translate(175,0)" x2="0" y2="5" stroke="#888" stroke-width="1" opacity="1"/><line transform="translate(189,0)" x2="0" y2="5" stroke="#888" stroke-width="1" opacity="1"/><line transform="translate(202,0)" x2="0" y2="5" stroke="#888" stroke-width="1" opacity="1"/><line transform="translate(216,0)" x2="0" y2="5" stroke="#888" stroke-width="1" opacity="1"/><line transform="translate(229,0)" x2="0" y2="5" stroke="#888" stroke-width="1" opacity="1"/><line transform="translate(243,0)" x2="0" y2="5" stroke="#888" stroke-width="1" opacity="1"/><line transform="translate(256,0)" x2="0" y2="5" stroke="#888" stroke-width="1" opacity="1"/><line transform="translate(270,0)" x2="0" y2="5" stroke="#888" stroke-width="1" opacity="1"/><line transform="translate(283,0)" x2="0" y2="5" stroke="#888" stroke-width="1" opacity="1"/><line transform="translate(297,0)" x2="0" y2="5" stroke="#888" stroke-width="1" opacity="1"/><line transform="translate(310,0)" x2="0" y2="5" stroke="#888" stroke-width="1" opacity="1"/><line transform="translate(324,0)" x2="0" y2="5" stroke="#888" stroke-width="1" opacity="1"/><line transform="translate(337,0)" x2="0" y2="5" stroke="#888" stroke-width="1" opacity="1"/><line transform="translate(351,0)" x2="0" y2="5" stroke="#888" stroke-width="1" opacity="1"/><line transform="translate(364,0)" x2="0" y2="5" stroke="#888" stroke-width="1" opacity="1"/><line transform="translate(378,0)" x2="0" y2="5" stroke="#888" stroke-width="1" opacity="1"/><line transform="translate(391,0)" x2="0" y2="5" stroke="#888" stroke-width="1" opacity="1"/><line transform="translate(404,0)" x2="0" y2="5" stroke="#888" stroke-width="1" opacity="1"/><line transform="translate(418,0)" x2="0" y2="5" stroke="#888" stroke-width="1" opacity="1"/><line transform="translate(431,0)" x2="0" y2="5" stroke="#888" stroke-width="1" opacity="1"/><line transform="translate(445,0)" x2="0" y2="5" stroke="#888" stroke-width="1" opacity="1"/><line transform="translate(458,0)" x2="0" y2="5" stroke="#888" stroke-width="1" opacity="1"/><line transform="translate(472,0)" x2="0" y2="5" stroke="#888" stroke-width="1" opacity="1"/><line transform="translate(485,0)" x2="0" y2="5" stroke="#888" stroke-width="1" opacity="1"/><line transform="translate(499,0)" x2="0" y2="5" stroke="#888" stroke-width="1" opacity="1"/><line transform="translate(512,0)" x2="0" y2="5" stroke="#888" stroke-width="1" opacity="1"/><line transform="translate(526,0)" x2="0" y2="5" stroke="#888" stroke-width="1" opacity="1"/><line transform="translate(539,0)" x2="0" y2="5" stroke="#888" stroke-width="1" opacity="1"/><line transform="translate(553,0)" x2="0" y2="5" stroke="#888" stroke-width="1" opacity="1"/><line transform="translate(566,0)" x2="0" y2="5" stroke="#888" stroke-width="1" opacity="1"/><line transform="translate(580,0)" x2="0" y2="5" stroke="#888" stroke-width="1" opacity="1"/><line transform="translate(593,0)" x2="0" y2="5" stroke="#888" stroke-width="1" opacity="1"/></g><g class="mark-text role-axis-label" pointer-events="none"><text text-anchor="start" transform="translate(0,15)" font-family="CM Mono" font-size="10px" fill="#000" opacity="1">1932</text><text text-anchor="middle" transform="translate(13.492063492063492,15)" font-family="CM Mono" font-size="10px" fill="#000" opacity="0">1934</text><text text-anchor="middle" transform="translate(26.965669988925804,15)" font-family="CM Mono" font-size="10px" fill="#000" opacity="0">1936</text><text text-anchor="middle" transform="translate(40.45773348098929,15)" font-family="CM Mono" font-size="10px" fill="#000" opacity="0">1938</text><text text-anchor="middle" transform="translate(53.93133997785161,15)" font-family="CM Mono" font-size="10px" fill="#000" opacity="1">1940</text><text text-anchor="middle" transform="translate(67.42263442844839,15)" font-family="CM Mono" font-size="10px" fill="#000" opacity="0">1942</text><text text-anchor="middle" transform="translate(80.89700996677742,15)" font-family="CM Mono" font-size="10px" fill="#000" opacity="0">1944</text><text text-anchor="middle" transform="translate(94.3890734588409,15)" font-family="CM Mono" font-size="10px" fill="#000" opacity="0">1946</text><text text-anchor="middle" transform="translate(107.86267995570321,15)" font-family="CM Mono" font-size="10px" fill="#000" opacity="1">1948</text><text text-anchor="middle" transform="translate(121.3547434477667,15)" font-family="CM Mono" font-size="10px" fill="#000" opacity="0">1950</text><text text-anchor="middle" transform="translate(134.82834994462903,15)" font-family="CM Mono" font-size="10px" fill="#000" opacity="0">1952</text><text text-anchor="middle" transform="translate(148.3204134366925,15)" font-family="CM Mono" font-size="10px" fill="#000" opacity="0">1954</text><text text-anchor="middle" transform="translate(161.79401993355484,15)" font-family="CM Mono" font-size="10px" fill="#000" opacity="1">1956</text><text text-anchor="middle" transform="translate(175.2860834256183,15)" font-family="CM Mono" font-size="10px" fill="#000" opacity="0">1958</text><text text-anchor="middle" transform="translate(188.75968992248065,15)" font-family="CM Mono" font-size="10px" fill="#000" opacity="0">1960</text><text text-anchor="middle" transform="translate(202.2517534145441,15)" font-family="CM Mono" font-size="10px" fill="#000" opacity="0">1962</text><text text-anchor="middle" transform="translate(215.72535991140643,15)" font-family="CM Mono" font-size="10px" fill="#000" opacity="1">1964</text><text text-anchor="middle" transform="translate(229.2174234034699,15)" font-family="CM Mono" font-size="10px" fill="#000" opacity="0">1966</text><text text-anchor="middle" transform="translate(242.69102990033224,15)" font-family="CM Mono" font-size="10px" fill="#000" opacity="0">1968</text><text text-anchor="middle" transform="translate(256.18309339239573,15)" font-family="CM Mono" font-size="10px" fill="#000" opacity="0">1970</text><text text-anchor="middle" transform="translate(269.65669988925805,15)" font-family="CM Mono" font-size="10px" fill="#000" opacity="1">1972</text><text text-anchor="middle" transform="translate(283.14876338132154,15)" font-family="CM Mono" font-size="10px" fill="#000" opacity="0">1974</text><text text-anchor="middle" transform="translate(296.62236987818386,15)" font-family="CM Mono" font-size="10px" fill="#000" opacity="0">1976</text><text text-anchor="middle" transform="translate(310.11443337024735,15)" font-family="CM Mono" font-size="10px" fill="#000" opacity="0">1978</text><text text-anchor="middle" transform="translate(323.58803986710967,15)" font-family="CM Mono" font-size="10px" fill="#000" opacity="1">1980</text><text text-anchor="middle" transform="translate(337.0801033591731,15)" font-family="CM Mono" font-size="10px" fill="#000" opacity="0">1982</text><text text-anchor="middle" transform="translate(350.5537098560355,15)" font-family="CM Mono" font-size="10px" fill="#000" opacity="0">1984</text><text text-anchor="middle" transform="translate(364.0457733480989,15)" font-family="CM Mono" font-size="10px" fill="#000" opacity="0">1986</text><text text-anchor="middle" transform="translate(377.5193798449613,15)" font-family="CM Mono" font-size="10px" fill="#000" opacity="1">1988</text><text text-anchor="middle" transform="translate(391.01144333702473,15)" font-family="CM Mono" font-size="10px" fill="#000" opacity="0">1990</text><text text-anchor="middle" transform="translate(404.48504983388705,15)" font-family="CM Mono" font-size="10px" fill="#000" opacity="0">1992</text><text text-anchor="middle" transform="translate(417.97711332595054,15)" font-family="CM Mono" font-size="10px" fill="#000" opacity="0">1994</text><text text-anchor="middle" transform="translate(431.45071982281286,15)" font-family="CM Mono" font-size="10px" fill="#000" opacity="1">1996</text><text text-anchor="middle" transform="translate(444.94278331487635,15)" font-family="CM Mono" font-size="10px" fill="#000" opacity="0">1998</text><text text-anchor="middle" transform="translate(458.41638981173867,15)" font-family="CM Mono" font-size="10px" fill="#000" opacity="0">2000</text><text text-anchor="middle" transform="translate(471.90845330380216,15)" font-family="CM Mono" font-size="10px" fill="#000" opacity="0">2002</text><text text-anchor="middle" transform="translate(485.3820598006645,15)" font-family="CM Mono" font-size="10px" fill="#000" opacity="1">2004</text><text text-anchor="middle" transform="translate(498.8741232927279,15)" font-family="CM Mono" font-size="10px" fill="#000" opacity="0">2006</text><text text-anchor="middle" transform="translate(512.3477297895903,15)" font-family="CM Mono" font-size="10px" fill="#000" opacity="0">2008</text><text text-anchor="middle" transform="translate(525.8397932816538,15)" font-family="CM Mono" font-size="10px" fill="#000" opacity="0">2010</text><text text-anchor="middle" transform="translate(539.3133997785161,15)" font-family="CM Mono" font-size="10px" fill="#000" opacity="1">2012</text><text text-anchor="middle" transform="translate(552.8054632705795,15)" font-family="CM Mono" font-size="10px" fill="#000" opacity="0">2014</text><text text-anchor="middle" transform="translate(566.2790697674419,15)" font-family="CM Mono" font-size="10px" fill="#000" opacity="0">2016</text><text text-anchor="middle" transform="translate(579.7711332595053,15)" font-family="CM Mono" font-size="10px" fill="#000" opacity="0">2018</text><text text-anchor="middle" transform="translate(593.2447397563677,15)" font-family="CM Mono" font-size="10px" fill="#000" opacity="1">2020</text></g><g class="mark-rule role-axis-domain" pointer-events="none"><line transform="translate(0,0)" x2="600" y2="0" stroke="#888" stroke-width="1" opacity="1"/></g></g><path class="foreground" aria-hidden="true" d="" pointer-events="none" display="none"/></g></g><g class="mark-group role-axis" role="graphics-symbol" aria-roledescription="axis" aria-label="Y-axis for a discrete scale with 27 values: Drum memory, Williams-Kilburn Tube, Magnetic-core memory, Magnetic Band (Tape), Hard Disk Drive (HDD), ending with Synthetic Metabolomes"><g transform="translate(0.5,0.5)"><path class="background" aria-hidden="true" d="M0,0h0v0h0Z" pointer-events="none"/><g><g class="mark-rule role-axis-tick" pointer-events="none"><line transform="translate(0,10)" x2="-5" y2="0" stroke="#888" stroke-width="1" opacity="1"/><line transform="translate(0,30)" x2="-5" y2="0" stroke="#888" stroke-width="1" opacity="1"/><line transform="translate(0,50)" x2="-5" y2="0" stroke="#888" stroke-width="1" opacity="1"/><line transform="translate(0,70)" x2="-5" y2="0" stroke="#888" stroke-width="1" opacity="1"/><line transform="translate(0,90)" x2="-5" y2="0" stroke="#888" stroke-width="1" opacity="1"/><line transform="translate(0,110)" x2="-5" y2="0" stroke="#888" stroke-width="1" opacity="1"/><line transform="translate(0,130)" x2="-5" y2="0" stroke="#888" stroke-width="1" opacity="1"/><line transform="translate(0,150)" x2="-5" y2="0" stroke="#888" stroke-width="1" opacity="1"/><line transform="translate(0,170)" x2="-5" y2="0" stroke="#888" stroke-width="1" opacity="1"/><line transform="translate(0,190)" x2="-5" y2="0" stroke="#888" stroke-width="1" opacity="1"/><line transform="translate(0,210)" x2="-5" y2="0" stroke="#888" stroke-width="1" opacity="1"/><line transform="translate(0,230)" x2="-5" y2="0" stroke="#888" stroke-width="1" opacity="1"/><line transform="translate(0,250)" x2="-5" y2="0" stroke="#888" stroke-width="1" opacity="1"/><line transform="translate(0,270)" x2="-5" y2="0" stroke="#888" stroke-width="1" opacity="1"/><line transform="translate(0,290)" x2="-5" y2="0" stroke="#888" stroke-width="1" opacity="1"/><line transform="translate(0,310)" x2="-5" y2="0" stroke="#888" stroke-width="1" opacity="1"/><line transform="translate(0,330)" x2="-5" y2="0" stroke="#888" stroke-width="1" opacity="1"/><line transform="translate(0,350)" x2="-5" y2="0" stroke="#888" stroke-width="1" opacity="1"/><line transform="translate(0,370)" x2="-5" y2="0" stroke="#888" stroke-width="1" opacity="1"/><line transform="translate(0,390)" x2="-5" y2="0" stroke="#888" stroke-width="1" opacity="1"/><line transform="translate(0,410)" x2="-5" y2="0" stroke="#888" stroke-width="1" opacity="1"/><line transform="translate(0,430)" x2="-5" y2="0" stroke="#888" stroke-width="1" opacity="1"/><line transform="translate(0,450)" x2="-5" y2="0" stroke="#888" stroke-width="1" opacity="1"/><line transform="translate(0,470)" x2="-5" y2="0" stroke="#888" stroke-width="1" opacity="1"/><line transform="translate(0,490)" x2="-5" y2="0" stroke="#888" stroke-width="1" opacity="1"/><line transform="translate(0,510)" x2="-5" y2="0" stroke="#888" stroke-width="1" opacity="1"/><line transform="translate(0,530)" x2="-5" y2="0" stroke="#888" stroke-width="1" opacity="1"/></g><g class="mark-text role-axis-label" pointer-events="none"><text text-anchor="end" transform="translate(-7,12.5)" font-family="CM Mono" font-size="10px" fill="#000" opacity="1">Drum memory</text><text text-anchor="end" transform="translate(-7,32.5)" font-family="CM Mono" font-size="10px" fill="#000" opacity="1">Williams-Kilburn Tube</text><text text-anchor="end" transform="translate(-7,52.5)" font-family="CM Mono" font-size="10px" fill="#000" opacity="1">Magnetic-core memory</text><text text-anchor="end" transform="translate(-7,72.5)" font-family="CM Mono" font-size="10px" fill="#000" opacity="1">Magnetic Band (Tape)</text><text text-anchor="end" transform="translate(-7,92.5)" font-family="CM Mono" font-size="10px" fill="#000" opacity="1">Hard Disk Drive (HDD)</text><text text-anchor="end" transform="translate(-7,112.5)" font-family="CM Mono" font-size="10px" fill="#000" opacity="1">Magnetic stripe card</text><text text-anchor="end" transform="translate(-7,132.5)" font-family="CM Mono" font-size="10px" fill="#000" opacity="1">Floppy Disk</text><text text-anchor="end" transform="translate(-7,152.5)" font-family="CM Mono" font-size="10px" fill="#000" opacity="1">Bubble Memory</text><text text-anchor="end" transform="translate(-7,172.5)" font-family="CM Mono" font-size="10px" fill="#000" opacity="1">LaserDisc (LD)/Discovision (DV)</text><text text-anchor="end" transform="translate(-7,192.5)" font-family="CM Mono" font-size="10px" fill="#000" opacity="1">Solid-State-Drive (SSD)</text><text text-anchor="end" transform="translate(-7,212.5)" font-family="CM Mono" font-size="10px" fill="#000" opacity="1">Compact Disc (CD)</text><text text-anchor="end" transform="translate(-7,232.5)" font-family="CM Mono" font-size="10px" fill="#000" opacity="1">Digital Audio Tape (DAT)</text><text text-anchor="end" transform="translate(-7,252.5)" font-family="CM Mono" font-size="10px" fill="#000" opacity="1">Mini-Disc</text><text text-anchor="end" transform="translate(-7,272.5)" font-family="CM Mono" font-size="10px" fill="#000" opacity="1">Zip Drive</text><text text-anchor="end" transform="translate(-7,292.5)" font-family="CM Mono" font-size="10px" fill="#000" opacity="1">CompactFlash (CF)</text><text text-anchor="end" transform="translate(-7,312.5)" font-family="CM Mono" font-size="10px" fill="#000" opacity="1">Digital Compact Cassette (DCC)</text><text text-anchor="end" transform="translate(-7,332.5)" font-family="CM Mono" font-size="10px" fill="#000" opacity="1">Digital Versatile Disc (DVD)</text><text text-anchor="end" transform="translate(-7,352.5)" font-family="CM Mono" font-size="10px" fill="#000" opacity="1">USB Flash Disk</text><text text-anchor="end" transform="translate(-7,372.5)" font-family="CM Mono" font-size="10px" fill="#000" opacity="1">Secure Digital (SD) card</text><text text-anchor="end" transform="translate(-7,392.5)" font-family="CM Mono" font-size="10px" fill="#000" opacity="1">Blu-ray Disc (BD)</text><text text-anchor="end" transform="translate(-7,412.5)" font-family="CM Mono" font-size="10px" fill="#000" opacity="1">Holographic Versatile Disc (HVD)</text><text text-anchor="end" transform="translate(-7,432.5)" font-family="CM Mono" font-size="10px" fill="#000" opacity="1">Millennial Disc (M-DISC)</text><text text-anchor="end" transform="translate(-7,452.5)" font-family="CM Mono" font-size="10px" fill="#000" opacity="1">Cell cultures</text><text text-anchor="end" transform="translate(-7,472.5)" font-family="CM Mono" font-size="10px" fill="#000" opacity="1">Synthetic DNA</text><text text-anchor="end" transform="translate(-7,492.5)" font-family="CM Mono" font-size="10px" fill="#000" opacity="1">Colloidal particle clusters</text><text text-anchor="end" transform="translate(-7,512.5)" font-family="CM Mono" font-size="10px" fill="#000" opacity="1">Chlorine Atomic memory</text><text text-anchor="end" transform="translate(-7,532.5)" font-family="CM Mono" font-size="10px" fill="#000" opacity="1">Synthetic Metabolomes</text></g><g class="mark-rule role-axis-domain" pointer-events="none"><line transform="translate(0,0)" x2="0" y2="540" stroke="#888" stroke-width="1" opacity="1"/></g></g><path class="foreground" aria-hidden="true" d="" pointer-events="none" display="none"/></g></g><g class="mark-rect role-mark layer_0_marks" role="graphics-object" aria-roledescription="rect mark container"><path aria-label="type: magnetic; year: Jan 01, 1932; usage: Jan 01, 1965; name: Drum memory" role="graphics-symbol" aria-roledescription="bar" d="M0,1h222.48062015503876v18h-222.48062015503876Z" fill="#2476B6"/><path aria-label="type: cathode ray tube; year: Jan 01, 1946; usage: Jan 01, 1955; name: Williams-Kilburn Tube" role="graphics-symbol" aria-roledescription="bar" d="M94.3890734588409,21h60.66814322628278v18h-60.66814322628278Z" fill="#CD7DA9"/><path aria-label="type: magnetic; year: Jan 01, 1949; usage: Jan 01, 1975; name: Magnetic-core memory" role="graphics-symbol" aria-roledescription="bar" d="M114.61794019933555,41h175.2676264304171v18h-175.2676264304171Z" fill="#2476B6"/><path aria-label="type: magnetic; year: Jan 01, 1952; usage: Jan 01, 2021; name: Magnetic Band (Tape)" role="graphics-symbol" aria-roledescription="bar" d="M134.82834994462903,61h465.17165005537095v18h-465.17165005537095Z" fill="#2476B6"/><path aria-label="type: magnetic; year: Jan 01, 1956; usage: Jan 01, 2021; name: Hard Disk Drive (HDD)" role="graphics-symbol" aria-roledescription="bar" d="M161.79401993355484,81h438.20598006644514v18h-438.20598006644514Z" fill="#2476B6"/><path aria-label="type: magnetic; year: Jan 01, 1960; usage: Jan 01, 2021; name: Magnetic stripe card" role="graphics-symbol" aria-roledescription="bar" d="M188.75968992248065,101h411.2403100775193v18h-411.2403100775193Z" fill="#2476B6"/><path aria-label="type: magnetic; year: Jan 01, 1969; usage: Jan 01, 1995; name: Floppy Disk" role="graphics-symbol" aria-roledescription="bar" d="M249.44629014396457,121h175.26762643041707v18h-175.26762643041707Z" fill="#2476B6"/><path aria-label="type: magnetic; year: Jan 01, 1970; usage: Jan 01, 1985; name: Bubble Memory" role="graphics-symbol" aria-roledescription="bar" d="M256.18309339239573,141h101.12587670727208v18h-101.12587670727208Z" fill="#2476B6"/><path aria-label="type: optical; year: Jan 01, 1978; usage: Jan 01, 2001; name: LaserDisc (LD)/Discovision (DV)" role="graphics-symbol" aria-roledescription="bar" d="M310.11443337024735,161h155.05721668512365v18h-155.05721668512365Z" fill="#BCBCBC"/><path aria-label="type: electronic; year: Jan 01, 1979; usage: Jan 01, 2021; name: Solid-State-Drive (SSD)" role="graphics-symbol" aria-roledescription="bar" d="M316.85123661867846,181h283.14876338132154v18h-283.14876338132154Z" fill="#E6A02E"/><path aria-label="type: optical; year: Jan 01, 1981; usage: Jan 01, 2021; name: Compact Disc (CD)" role="graphics-symbol" aria-roledescription="bar" d="M330.343300110742,201h269.656699889258v18h-269.656699889258Z" fill="#BCBCBC"/><path aria-label="type: electro-mechanical; year: Jan 01, 1987; usage: Jan 01, 2005; name: Digital Audio Tape (DAT)" role="graphics-symbol" aria-roledescription="bar" d="M370.7825765965301,221h121.35474344776674v18h-121.35474344776674Z" fill="#D73F47"/><path aria-label="type: magneto-optical; year: Jan 01, 1991; usage: Jan 01, 2001; name: Mini-Disc" role="graphics-symbol" aria-roledescription="bar" d="M397.7482465854559,241h67.42340346991512v18h-67.42340346991512Z"/><path aria-label="type: magnetic; year: Jan 01, 1994; usage: Jan 01, 1995; name: Zip Drive" role="graphics-symbol" aria-roledescription="bar" d="M417.97711332595054,261h6.736803248431102v18h-6.736803248431102Z" fill="#2476B6"/><path aria-label="type: electronic; year: Jan 01, 1995; usage: Jan 01, 2021; name: CompactFlash (CF)" role="graphics-symbol" aria-roledescription="bar" d="M424.71391657438164,281h175.28608342561836v18h-175.28608342561836Z" fill="#E6A02E"/><path aria-label="type: magnetic; year: Jan 01, 1995; usage: Jan 01, 1996; name: Digital Compact Cassette (DCC)" role="graphics-symbol" aria-roledescription="bar" d="M424.71391657438164,301h6.736803248431215v18h-6.736803248431215Z" fill="#2476B6"/><path aria-label="type: optical; year: Jan 01, 1996; usage: Jan 01, 2021; name: Digital Versatile Disc (DVD)" role="graphics-symbol" aria-roledescription="bar" d="M431.45071982281286,321h168.54928017718714v18h-168.54928017718714Z" fill="#BCBCBC"/><path aria-label="type: electronic; year: Jan 01, 2000; usage: Jan 01, 2021; name: USB Flash Disk" role="graphics-symbol" aria-roledescription="bar" d="M458.41638981173867,341h141.58361018826133v18h-141.58361018826133Z" fill="#E6A02E"/><path aria-label="type: electronic; year: Jan 01, 2001; usage: Jan 01, 2021; name: Secure Digital (SD) card" role="graphics-symbol" aria-roledescription="bar" d="M465.171650055371,361h134.828349944629v18h-134.828349944629Z" fill="#E6A02E"/><path aria-label="type: optical; year: Jan 01, 2002; usage: Jan 01, 2021; name: Blu-ray Disc (BD)" role="graphics-symbol" aria-roledescription="bar" d="M471.90845330380216,381h128.09154669619784v18h-128.09154669619784Z" fill="#BCBCBC"/><path aria-label="type: optical; year: Jan 01, 2004; usage: Jan 01, 2008; name: Holographic Versatile Disc (HVD)" role="graphics-symbol" aria-roledescription="bar" d="M485.3820598006645,401h26.96566998892581v18h-26.96566998892581Z" fill="#BCBCBC"/><path aria-label="type: optical; year: Jan 01, 2009; usage: Jan 01, 2016; name: Millennial Disc (M-DISC)" role="graphics-symbol" aria-roledescription="bar" d="M519.1029900332226,421h47.17607973421934v18h-47.17607973421934Z" fill="#BCBCBC"/><path aria-label="type: molecular; year: Jan 01, 2010; usage: Jan 01, 2021; name: Cell cultures" role="graphics-symbol" aria-roledescription="bar" d="M525.8397932816538,441h74.16020671834622v18h-74.16020671834622Z"/><path aria-label="type: atomic; year: Jan 01, 2014; usage: Jan 01, 2021; name: Colloidal particle clusters" role="graphics-symbol" aria-roledescription="bar" d="M552.8054632705795,481h47.19453672942052v18h-47.19453672942052Z"/><path aria-label="type: atomic; year: Jan 01, 2016; usage: Jan 01, 2021; name: Chlorine Atomic memory" role="graphics-symbol" aria-roledescription="bar" d="M566.2790697674419,501h33.72093023255809v18h-33.72093023255809Z"/><path aria-label="type: molecular; year: Jan 01, 2010; usage: Jan 01, 2021; name: Synthetic DNA" role="graphics-symbol" aria-roledescription="bar" d="M525.8397932816538,461h74.16020671834622v18h-74.16020671834622Z"/><path aria-label="type: molecular; year: Jan 01, 2019; usage: Jan 01, 2021; name: Synthetic Metabolomes" role="graphics-symbol" aria-roledescription="bar" d="M586.5079365079365,521h13.492063492063494v18h-13.492063492063494Z"/></g><g class="mark-rect role-mark layer_1_marks" role="graphics-object" aria-roledescription="rect mark container"><path aria-label="year: Jan 01, 1991; usage: Jan 01, 2001; name: Mini-Disc" role="graphics-symbol" aria-roledescription="bar" d="M397.7482465854559,241h67.42340346991512v18h-67.42340346991512Z" fill="#BCBCBC" stroke="#2476B6" stroke-width="3"/></g><g class="mark-rect role-mark layer_2_marks" role="graphics-object" aria-roledescription="rect mark container"><path aria-label="year: Jan 01, 2014; usage: Jan 01, 2021; name: Colloidal particle clusters" role="graphics-symbol" aria-roledescription="bar" d="M552.8054632705795,481h47.19453672942052v18h-47.19453672942052Z" fill="white" stroke="#BCBCBC" stroke-width="3"/><path aria-label="year: Jan 01, 2016; usage: Jan 01, 2021; name: Chlorine Atomic memory" role="graphics-symbol" aria-roledescription="bar" d="M566.2790697674419,501h33.72093023255809v18h-33.72093023255809Z" fill="white" stroke="#BCBCBC" stroke-width="3"/></g><g class="mark-rect role-mark layer_3_marks" role="graphics-object" aria-roledescription="rect mark container"><path aria-label="year: Jan 01, 2010; usage: Jan 01, 2021; name: Cell cultures" role="graphics-symbol" aria-roledescription="bar" d="M525.8397932816538,441h74.16020671834622v18h-74.16020671834622Z" fill="white" stroke="black" stroke-width="3"/><path aria-label="year: Jan 01, 2010; usage: Jan 01, 2021; name: Synthetic DNA" role="graphics-symbol" aria-roledescription="bar" d="M525.8397932816538,461h74.16020671834622v18h-74.16020671834622Z" fill="white" stroke="black" stroke-width="3"/><path aria-label="year: Jan 01, 2019; usage: Jan 01, 2021; name: Synthetic Metabolomes" role="graphics-symbol" aria-roledescription="bar" d="M586.5079365079365,521h13.492063492063494v18h-13.492063492063494Z" fill="white" stroke="black" stroke-width="3"/></g></g><path class="foreground" aria-hidden="true" d="" display="none"/></g></g></g></svg>