<svg class="marks" width="625" height="67" viewBox="0 0 625 67" version="1.1" xmlns="http://www.w3.org/2000/svg" xmlns:xlink="http://www.w3.org/1999/xlink"><rect width="625" height="67" style="fill: white;"></rect><g transform="translate(19,5)"><g class="mark-group role-frame root"><g transform="translate(0,0)"><path class="background" d="M0.5,0.5h600v40h-600Z" style="fill: none; stroke: #ddd;"></path><g><g class="mark-group role-axis"><g transform="translate(0.5,40.5)"><path class="background" d="M0,0h0v0h0Z" style="pointer-events: none; fill: none;"></path><g><g class="mark-rule role-axis-grid" style="pointer-events: none;"><line transform="translate(0,0)" x2="0" y2="-40" style="fill: none; stroke: #ddd; stroke-width: 1; opacity: 1;"></line><line transform="translate(33,0)" x2="0" y2="-40" style="fill: none; stroke: #ddd; stroke-width: 1; opacity: 1;"></line><line transform="translate(67,0)" x2="0" y2="-40" style="fill: none; stroke: #ddd; stroke-width: 1; opacity: 1;"></line><line transform="translate(100,0)" x2="0" y2="-40" style="fill: none; stroke: #ddd; stroke-width: 1; opacity: 1;"></line><line transform="translate(133,0)" x2="0" y2="-40" style="fill: none; stroke: #ddd; stroke-width: 1; opacity: 1;"></line><line transform="translate(167,0)" x2="0" y2="-40" style="fill: none; stroke: #ddd; stroke-width: 1; opacity: 1;"></line><line transform="translate(200,0)" x2="0" y2="-40" style="fill: none; stroke: #ddd; stroke-width: 1; opacity: 1;"></line><line transform="translate(233,0)" x2="0" y2="-40" style="fill: none; stroke: #ddd; stroke-width: 1; opacity: 1;"></line><line transform="translate(267,0)" x2="0" y2="-40" style="fill: none; stroke: #ddd; stroke-width: 1; opacity: 1;"></line><line transform="translate(300,0)" x2="0" y2="-40" style="fill: none; stroke: #ddd; stroke-width: 1; opacity: 1;"></line><line transform="translate(333,0)" x2="0" y2="-40" style="fill: none; stroke: #ddd; stroke-width: 1; opacity: 1;"></line><line transform="translate(367,0)" x2="0" y2="-40" style="fill: none; stroke: #ddd; stroke-width: 1; opacity: 1;"></line><line transform="translate(400,0)" x2="0" y2="-40" style="fill: none; stroke: #ddd; stroke-width: 1; opacity: 1;"></line><line transform="translate(433,0)" x2="0" y2="-40" style="fill: none; stroke: #ddd; stroke-width: 1; opacity: 1;"></line><line transform="translate(467,0)" x2="0" y2="-40" style="fill: none; stroke: #ddd; stroke-width: 1; opacity: 1;"></line><line transform="translate(500,0)" x2="0" y2="-40" style="fill: none; stroke: #ddd; stroke-width: 1; opacity: 1;"></line><line transform="translate(533,0)" x2="0" y2="-40" style="fill: none; stroke: #ddd; stroke-width: 1; opacity: 1;"></line><line transform="translate(567,0)" x2="0" y2="-40" style="fill: none; stroke: #ddd; stroke-width: 1; opacity: 1;"></line><line transform="translate(600,0)" x2="0" y2="-40" style="fill: none; stroke: #ddd; stroke-width: 1; opacity: 1;"></line></g></g><path class="foreground" d="" style="pointer-events: none; display: none; fill: none;"></path></g></g><g class="mark-group role-axis"><g transform="translate(0.5,40.5)"><path class="background" d="M0,0h0v0h0Z" style="pointer-events: none; fill: none;"></path><g><g class="mark-rule role-axis-tick" style="pointer-events: none;"><line transform="translate(0,0)" x2="0" y2="5" style="fill: none; stroke: #888; stroke-width: 1; opacity: 1;"></line><line transform="translate(33,0)" x2="0" y2="5" style="fill: none; stroke: #888; stroke-width: 1; opacity: 1;"></line><line transform="translate(67,0)" x2="0" y2="5" style="fill: none; stroke: #888; stroke-width: 1; opacity: 1;"></line><line transform="translate(100,0)" x2="0" y2="5" style="fill: none; stroke: #888; stroke-width: 1; opacity: 1;"></line><line transform="translate(133,0)" x2="0" y2="5" style="fill: none; stroke: #888; stroke-width: 1; opacity: 1;"></line><line transform="translate(167,0)" x2="0" y2="5" style="fill: none; stroke: #888; stroke-width: 1; opacity: 1;"></line><line transform="translate(200,0)" x2="0" y2="5" style="fill: none; stroke: #888; stroke-width: 1; opacity: 1;"></line><line transform="translate(233,0)" x2="0" y2="5" style="fill: none; stroke: #888; stroke-width: 1; opacity: 1;"></line><line transform="translate(267,0)" x2="0" y2="5" style="fill: none; stroke: #888; stroke-width: 1; opacity: 1;"></line><line transform="translate(300,0)" x2="0" y2="5" style="fill: none; stroke: #888; stroke-width: 1; opacity: 1;"></line><line transform="translate(333,0)" x2="0" y2="5" style="fill: none; stroke: #888; stroke-width: 1; opacity: 1;"></line><line transform="translate(367,0)" x2="0" y2="5" style="fill: none; stroke: #888; stroke-width: 1; opacity: 1;"></line><line transform="translate(400,0)" x2="0" y2="5" style="fill: none; stroke: #888; stroke-width: 1; opacity: 1;"></line><line transform="translate(433,0)" x2="0" y2="5" style="fill: none; stroke: #888; stroke-width: 1; opacity: 1;"></line><line transform="translate(467,0)" x2="0" y2="5" style="fill: none; stroke: #888; stroke-width: 1; opacity: 1;"></line><line transform="translate(500,0)" x2="0" y2="5" style="fill: none; stroke: #888; stroke-width: 1; opacity: 1;"></line><line transform="translate(533,0)" x2="0" y2="5" style="fill: none; stroke: #888; stroke-width: 1; opacity: 1;"></line><line transform="translate(567,0)" x2="0" y2="5" style="fill: none; stroke: #888; stroke-width: 1; opacity: 1;"></line><line transform="translate(600,0)" x2="0" y2="5" style="fill: none; stroke: #888; stroke-width: 1; opacity: 1;"></line></g><g class="mark-text role-axis-label" style="pointer-events: none;"><text text-anchor="start" transform="translate(0,15)" style="font-family: CM Mono; font-size: 10px; fill: #000; opacity: 1;">1930</text><text text-anchor="middle" transform="translate(33.32927719639815,15)" style="font-family: CM Mono; font-size: 10px; fill: #000; opacity: 0;">1935</text><text text-anchor="middle" transform="translate(66.6585543927963,15)" style="font-family: CM Mono; font-size: 10px; fill: #000; opacity: 1;">1940</text><text text-anchor="middle" transform="translate(100.00608420540277,15)" style="font-family: CM Mono; font-size: 10px; fill: #000; opacity: 0;">1945</text><text text-anchor="middle" transform="translate(133.33536140180092,15)" style="font-family: CM Mono; font-size: 10px; fill: #000; opacity: 1;">1950</text><text text-anchor="middle" transform="translate(166.66463859819908,15)" style="font-family: CM Mono; font-size: 10px; fill: #000; opacity: 0;">1955</text><text text-anchor="middle" transform="translate(199.99391579459723,15)" style="font-family: CM Mono; font-size: 10px; fill: #000; opacity: 1;">1960</text><text text-anchor="middle" transform="translate(233.3414456072037,15)" style="font-family: CM Mono; font-size: 10px; fill: #000; opacity: 0;">1965</text><text text-anchor="middle" transform="translate(266.67072280360185,15)" style="font-family: CM Mono; font-size: 10px; fill: #000; opacity: 1;">1970</text><text text-anchor="middle" transform="translate(300,15)" style="font-family: CM Mono; font-size: 10px; fill: #000; opacity: 0;">1975</text><text text-anchor="middle" transform="translate(333.32927719639815,15)" style="font-family: CM Mono; font-size: 10px; fill: #000; opacity: 1;">1980</text><text text-anchor="middle" transform="translate(366.6768070090046,15)" style="font-family: CM Mono; font-size: 10px; fill: #000; opacity: 0;">1985</text><text text-anchor="middle" transform="translate(400.00608420540283,15)" style="font-family: CM Mono; font-size: 10px; fill: #000; opacity: 1;">1990</text><text text-anchor="middle" transform="translate(433.335361401801,15)" style="font-family: CM Mono; font-size: 10px; fill: #000; opacity: 0;">1995</text><text text-anchor="middle" transform="translate(466.664638598199,15)" style="font-family: CM Mono; font-size: 10px; fill: #000; opacity: 1;">2000</text><text text-anchor="middle" transform="translate(500.01216841080554,15)" style="font-family: CM Mono; font-size: 10px; fill: #000; opacity: 0;">2005</text><text text-anchor="middle" transform="translate(533.3414456072037,15)" style="font-family: CM Mono; font-size: 10px; fill: #000; opacity: 1;">2010</text><text text-anchor="middle" transform="translate(566.6707228036018,15)" style="font-family: CM Mono; font-size: 10px; fill: #000; opacity: 0;">2015</text><text text-anchor="end" transform="translate(600,15)" style="font-family: CM Mono; font-size: 10px; fill: #000; opacity: 1;">2020</text></g><g class="mark-rule role-axis-domain" style="pointer-events: none;"><line transform="translate(0,0)" x2="600" y2="0" style="fill: none; stroke: #888; stroke-width: 1; opacity: 1;"></line></g></g><path class="foreground" d="" style="pointer-events: none; display: none; fill: none;"></path></g></g><g class="mark-group role-axis"><g transform="translate(0.5,0.5)"><path class="background" d="M0,0h0v0h0Z" style="pointer-events: none; fill: none;"></path><g><g class="mark-rule role-axis-tick" style="pointer-events: none;"><line transform="translate(0,10)" x2="-5" y2="0" style="fill: none; stroke: #888; stroke-width: 1; opacity: 1;"></line><line transform="translate(0,30)" x2="-5" y2="0" style="fill: none; stroke: #888; stroke-width: 1; opacity: 1;"></line></g><g class="mark-text role-axis-label" style="pointer-events: none;"><text text-anchor="end" transform="translate(-7,13)" style="font-family: CM Mono; font-size: 10px; fill: #000; opacity: 1;">0</text><text text-anchor="end" transform="translate(-7,33)" style="font-family: CM Mono; font-size: 10px; fill: #000; opacity: 1;">1</text></g><g class="mark-rule role-axis-domain" style="pointer-events: none;"><line transform="translate(0,0)" x2="0" y2="40" style="fill: none; stroke: #888; stroke-width: 1; opacity: 1;"></line></g></g><path class="foreground" d="" style="pointer-events: none; display: none; fill: none;"></path></g></g><g class="mark-symbol role-mark layer_0_marks"><path transform="translate(13.32440983207593,10)" d="M5,0A5,5,0,1,1,-5,0A5,5,0,1,1,5,0" style="fill: #2476B6; stroke-width: 2; opacity: 1;"></path><path transform="translate(106.66828912144074,30)" d="M5,0A5,5,0,1,1,-5,0A5,5,0,1,1,5,0" style="fill: #CD7DA9; stroke-width: 2; opacity: 1;"></path><path transform="translate(126.67315648576296,30)" d="M5,0A5,5,0,1,1,-5,0A5,5,0,1,1,5,0" style="fill: #2476B6; stroke-width: 2; opacity: 1;"></path><path transform="translate(146.65977123387685,10)" d="M5,0A5,5,0,1,1,-5,0A5,5,0,1,1,5,0" style="fill: #2476B6; stroke-width: 2; opacity: 1;"></path><path transform="translate(173.32684351423703,30)" d="M5,0A5,5,0,1,1,-5,0A5,5,0,1,1,5,0" style="fill: #2476B6; stroke-width: 2; opacity: 1;"></path><path transform="translate(199.99391579459723,10)" d="M5,0A5,5,0,1,1,-5,0A5,5,0,1,1,5,0" style="fill: #2476B6; stroke-width: 2; opacity: 1;"></path><path transform="translate(260.00851788756387,30)" d="M5,0A5,5,0,1,1,-5,0A5,5,0,1,1,5,0" style="fill: #2476B6; stroke-width: 2; opacity: 1;"></path><path transform="translate(266.67072280360185,10)" d="M5,0A5,5,0,1,1,-5,0A5,5,0,1,1,5,0" style="fill: #2476B6; stroke-width: 2; opacity: 1;"></path><path transform="translate(320.0048673643222,30)" d="M5,0A5,5,0,1,1,-5,0A5,5,0,1,1,5,0" style="fill: #BCBCBC; stroke-width: 2; opacity: 1;"></path><path transform="translate(326.66707228036023,30)" d="M5,0A5,5,0,1,1,-5,0A5,5,0,1,1,5,0" style="fill: #E6A02E; stroke-width: 2; opacity: 1;"></path><path transform="translate(340.00973472864445,30)" d="M5,0A5,5,0,1,1,-5,0A5,5,0,1,1,5,0" style="fill: #BCBCBC; stroke-width: 2; opacity: 1;"></path><path transform="translate(380.0012168410805,10)" d="M5,0A5,5,0,1,1,-5,0A5,5,0,1,1,5,0" style="fill: #D73F47; stroke-width: 2; opacity: 1;"></path><path transform="translate(406.66828912144075,30)" d="M5,0A5,5,0,1,1,-5,0A5,5,0,1,1,5,0" style="fill: none; stroke-width: 2; opacity: 1;"></path><path transform="translate(426.67315648576295,30)" d="M5,0A5,5,0,1,1,-5,0A5,5,0,1,1,5,0" style="fill: #2476B6; stroke-width: 2; opacity: 1;"></path><path transform="translate(433.335361401801,30)" d="M5,0A5,5,0,1,1,-5,0A5,5,0,1,1,5,0" style="fill: #E6A02E; stroke-width: 2; opacity: 1;"></path><path transform="translate(433.335361401801,10)" d="M5,0A5,5,0,1,1,-5,0A5,5,0,1,1,5,0" style="fill: #2476B6; stroke-width: 2; opacity: 1;"></path><path transform="translate(439.9975663178389,30)" d="M5,0A5,5,0,1,1,-5,0A5,5,0,1,1,5,0" style="fill: #BCBCBC; stroke-width: 2; opacity: 1;"></path><path transform="translate(466.664638598199,30)" d="M5,0A5,5,0,1,1,-5,0A5,5,0,1,1,5,0" style="fill: #E6A02E; stroke-width: 2; opacity: 1;"></path><path transform="translate(473.3450961304453,30)" d="M5,0A5,5,0,1,1,-5,0A5,5,0,1,1,5,0" style="fill: #E6A02E; stroke-width: 2; opacity: 1;"></path><path transform="translate(480.00730104648335,30)" d="M5,0A5,5,0,1,1,-5,0A5,5,0,1,1,5,0" style="fill: #BCBCBC; stroke-width: 2; opacity: 1;"></path><path transform="translate(493.33171087855925,30)" d="M5,0A5,5,0,1,1,-5,0A5,5,0,1,1,5,0" style="fill: #BCBCBC; stroke-width: 2; opacity: 1;"></path><path transform="translate(526.6792406911658,30)" d="M5,0A5,5,0,1,1,-5,0A5,5,0,1,1,5,0" style="fill: #BCBCBC; stroke-width: 2; opacity: 1;"></path><path transform="translate(533.3414456072037,10)" d="M5,0A5,5,0,1,1,-5,0A5,5,0,1,1,5,0" style="fill: none; stroke-width: 2; opacity: 1;"></path><path transform="translate(560.0085178875639,10)" d="M5,0A5,5,0,1,1,-5,0A5,5,0,1,1,5,0" style="fill: none; stroke-width: 2; opacity: 1;"></path><path transform="translate(573.3329277196398,30)" d="M5,0A5,5,0,1,1,-5,0A5,5,0,1,1,5,0" style="fill: none; stroke-width: 2; opacity: 1;"></path><path transform="translate(533.3414456072037,10)" d="M5,0A5,5,0,1,1,-5,0A5,5,0,1,1,5,0" style="fill: none; stroke-width: 2; opacity: 1;"></path><path transform="translate(593.3377950839621,10)" d="M5,0A5,5,0,1,1,-5,0A5,5,0,1,1,5,0" style="fill: none; stroke-width: 2; opacity: 1;"></path></g><g class="mark-symbol role-mark layer_1_marks"><path transform="translate(406.66828912144075,30)" d="M3.872983346207417,0A3.872983346207417,3.872983346207417,0,1,1,-3.872983346207417,0A3.872983346207417,3.872983346207417,0,1,1,3.872983346207417,0" style="fill: #BCBCBC; stroke: #2476B6; stroke-width: 2; opacity: 0.55;"></path></g><g class="mark-symbol role-mark layer_2_marks"><path transform="translate(560.0085178875639,10)" d="M3.872983346207417,0A3.872983346207417,3.872983346207417,0,1,1,-3.872983346207417,0A3.872983346207417,3.872983346207417,0,1,1,3.872983346207417,0" style="fill: white; stroke: gray; stroke-width: 2; opacity: 0.3;"></path><path transform="translate(573.3329277196398,30)" d="M3.872983346207417,0A3.872983346207417,3.872983346207417,0,1,1,-3.872983346207417,0A3.872983346207417,3.872983346207417,0,1,1,3.872983346207417,0" style="fill: white; stroke: gray; stroke-width: 2; opacity: 0.3;"></path></g><g class="mark-symbol role-mark layer_3_marks"><path transform="translate(533.3414456072037,10)" d="M3.872983346207417,0A3.872983346207417,3.872983346207417,0,1,1,-3.872983346207417,0A3.872983346207417,3.872983346207417,0,1,1,3.872983346207417,0" style="fill: white; stroke: black; stroke-width: 2; opacity: 0.8;"></path><path transform="translate(533.3414456072037,10)" d="M3.872983346207417,0A3.872983346207417,3.872983346207417,0,1,1,-3.872983346207417,0A3.872983346207417,3.872983346207417,0,1,1,3.872983346207417,0" style="fill: white; stroke: black; stroke-width: 2; opacity: 0.8;"></path><path transform="translate(593.3377950839621,10)" d="M3.872983346207417,0A3.872983346207417,3.872983346207417,0,1,1,-3.872983346207417,0A3.872983346207417,3.872983346207417,0,1,1,3.872983346207417,0" style="fill: white; stroke: black; stroke-width: 2; opacity: 0.8;"></path></g></g><path class="foreground" d="" style="display: none; fill: none;"></path></g></g></g></svg>