<svg xmlns="http://www.w3.org/2000/svg" xmlns:xlink="http://www.w3.org/1999/xlink" version="1.1" class="marks" width="624" height="67" viewBox="0 0 624 67"><rect width="624" height="67" fill="white"/><g fill="none" stroke-miterlimit="10" transform="translate(18,5)"><g class="mark-group role-frame root" role="graphics-object" aria-roledescription="group mark container"><g transform="translate(0,0)"><path class="background" aria-hidden="true" d="M0.5,0.5h600v40h-600Z" stroke="#ddd"/><g><g class="mark-group role-axis" aria-hidden="true"><g transform="translate(0.5,40.5)"><path class="background" aria-hidden="true" d="M0,0h0v0h0Z" pointer-events="none"/><g><g class="mark-rule role-axis-grid" pointer-events="none"><line transform="translate(0,0)" x2="0" y2="-40" stroke="#ddd" stroke-width="1" opacity="1"/><line transform="translate(33,0)" x2="0" y2="-40" stroke="#ddd" stroke-width="1" opacity="1"/><line transform="translate(67,0)" x2="0" y2="-40" stroke="#ddd" stroke-width="1" opacity="1"/><line transform="translate(100,0)" x2="0" y2="-40" stroke="#ddd" stroke-width="1" opacity="1"/><line transform="translate(133,0)" x2="0" y2="-40" stroke="#ddd" stroke-width="1" opacity="1"/><line transform="translate(167,0)" x2="0" y2="-40" stroke="#ddd" stroke-width="1" opacity="1"/><line transform="translate(200,0)" x2="0" y2="-40" stroke="#ddd" stroke-width="1" opacity="1"/><line transform="translate(233,0)" x2="0" y2="-40" stroke="#ddd" stroke-width="1" opacity="1"/><line transform="translate(267,0)" x2="0" y2="-40" stroke="#ddd" stroke-width="1" opacity="1"/><line transform="translate(300,0)" x2="0" y2="-40" stroke="#ddd" stroke-width="1" opacity="1"/><line transform="translate(333,0)" x2="0" y2="-40" stroke="#ddd" stroke-width="1" opacity="1"/><line transform="translate(367,0)" x2="0" y2="-40" stroke="#ddd" stroke-width="1" opacity="1"/><line transform="translate(400,0)" x2="0" y2="-40" stroke="#ddd" stroke-width="1" opacity="1"/><line transform="translate(433,0)" x2="0" y2="-40" stroke="#ddd" stroke-width="1" opacity="1"/><line transform="translate(467,0)" x2="0" y2="-40" stroke="#ddd" stroke-width="1" opacity="1"/><line transform="translate(500,0)" x2="0" y2="-40" stroke="#ddd" stroke-width="1" opacity="1"/><line transform="translate(533,0)" x2="0" y2="-40" stroke="#ddd" stroke-width="1" opacity="1"/><line transform="translate(567,0)" x2="0" y2="-40" stroke="#ddd" stroke-width="1" opacity="1"/><line transform="translate(600,0)" x2="0" y2="-40" stroke="#ddd" stroke-width="1" opacity="1"/></g></g><path class="foreground" aria-hidden="true" d="" pointer-events="none" display="none"/></g></g><g class="mark-group role-axis" role="graphics-symbol" aria-roledescription="axis" aria-label="X-axis for a time scale with values from Wednesday, 01 January 1930, 12:00:00 AM to Wednesday, 01 January 2020, 12:00:00 AM"><g transform="translate(0.5,40.5)"><path class="background" aria-hidden="true" d="M0,0h0v0h0Z" pointer-events="none"/><g><g class="mark-rule role-axis-tick" pointer-events="none"><line transform="translate(0,0)" x2="0" y2="5" stroke="#888" stroke-width="1" opacity="1"/><line transform="translate(33,0)" x2="0" y2="5" stroke="#888" stroke-width="1" opacity="1"/><line transform="translate(67,0)" x2="0" y2="5" stroke="#888" stroke-width="1" opacity="1"/><line transform="translate(100,0)" x2="0" y2="5" stroke="#888" stroke-width="1" opacity="1"/><line transform="translate(133,0)" x2="0" y2="5" stroke="#888" stroke-width="1" opacity="1"/><line transform="translate(167,0)" x2="0" y2="5" stroke="#888" stroke-width="1" opacity="1"/><line transform="translate(200,0)" x2="0" y2="5" stroke="#888" stroke-width="1" opacity="1"/><line transform="translate(233,0)" x2="0" y2="5" stroke="#888" stroke-width="1" opacity="1"/><line transform="translate(267,0)" x2="0" y2="5" stroke="#888" stroke-width="1" opacity="1"/><line transform="translate(300,0)" x2="0" y2="5" stroke="#888" stroke-width="1" opacity="1"/><line transform="translate(333,0)" x2="0" y2="5" stroke="#888" stroke-width="1" opacity="1"/><line transform="translate(367,0)" x2="0" y2="5" stroke="#888" stroke-width="1" opacity="1"/><line transform="translate(400,0)" x2="0" y2="5" stroke="#888" stroke-width="1" opacity="1"/><line transform="translate(433,0)" x2="0" y2="5" stroke="#888" stroke-width="1" opacity="1"/><line transform="translate(467,0)" x2="0" y2="5" stroke="#888" stroke-width="1" opacity="1"/><line transform="translate(500,0)" x2="0" y2="5" stroke="#888" stroke-width="1" opacity="1"/><line transform="translate(533,0)" x2="0" y2="5" stroke="#888" stroke-width="1" opacity="1"/><line transform="translate(567,0)" x2="0" y2="5" stroke="#888" stroke-width="1" opacity="1"/><line transform="translate(600,0)" x2="0" y2="5" stroke="#888" stroke-width="1" opacity="1"/></g><g class="mark-text role-axis-label" pointer-events="none"><text text-anchor="start" transform="translate(0,15)" font-family="CM Mono" font-size="10px" fill="#000" opacity="1">1930</text><text text-anchor="middle" transform="translate(33.32927719639815,15)" font-family="CM Mono" font-size="10px" fill="#000" opacity="0">1935</text><text text-anchor="middle" transform="translate(66.6585543927963,15)" font-family="CM Mono" font-size="10px" fill="#000" opacity="1">1940</text><text text-anchor="middle" transform="translate(100.00608420540277,15)" font-family="CM Mono" font-size="10px" fill="#000" opacity="0">1945</text><text text-anchor="middle" transform="translate(133.33536140180092,15)" font-family="CM Mono" font-size="10px" fill="#000" opacity="1">1950</text><text text-anchor="middle" transform="translate(166.66463859819908,15)" font-family="CM Mono" font-size="10px" fill="#000" opacity="0">1955</text><text text-anchor="middle" transform="translate(199.99391579459723,15)" font-family="CM Mono" font-size="10px" fill="#000" opacity="1">1960</text><text text-anchor="middle" transform="translate(233.3414456072037,15)" font-family="CM Mono" font-size="10px" fill="#000" opacity="0">1965</text><text text-anchor="middle" transform="translate(266.67072280360185,15)" font-family="CM Mono" font-size="10px" fill="#000" opacity="1">1970</text><text text-anchor="middle" transform="translate(300,15)" font-family="CM Mono" font-size="10px" fill="#000" opacity="0">1975</text><text text-anchor="middle" transform="translate(333.32927719639815,15)" font-family="CM Mono" font-size="10px" fill="#000" opacity="1">1980</text><text text-anchor="middle" transform="translate(366.6768070090046,15)" font-family="CM Mono" font-size="10px" fill="#000" opacity="0">1985</text><text text-anchor="middle" transform="translate(400.00608420540283,15)" font-family="CM Mono" font-size="10px" fill="#000" opacity="1">1990</text><text text-anchor="middle" transform="translate(433.335361401801,15)" font-family="CM Mono" font-size="10px" fill="#000" opacity="0">1995</text><text text-anchor="middle" transform="translate(466.664638598199,15)" font-family="CM Mono" font-size="10px" fill="#000" opacity="1">2000</text><text text-anchor="middle" transform="translate(500.01216841080554,15)" font-family="CM Mono" font-size="10px" fill="#000" opacity="0">2005</text><text text-anchor="middle" transform="translate(533.3414456072037,15)" font-family="CM Mono" font-size="10px" fill="#000" opacity="1">2010</text><text text-anchor="middle" transform="translate(566.6707228036018,15)" font-family="CM Mono" font-size="10px" fill="#000" opacity="0">2015</text><text text-anchor="end" transform="translate(600,15)" font-family="CM Mono" font-size="10px" fill="#000" opacity="1">2020</text></g><g class="mark-rule role-axis-domain" pointer-events="none"><line transform="translate(0,0)" x2="600" y2="0" stroke="#888" stroke-width="1" opacity="1"/></g></g><path class="foreground" aria-hidden="true" d="" pointer-events="none" display="none"/></g></g><g class="mark-group role-axis" role="graphics-symbol" aria-roledescription="axis" aria-label="Y-axis for a discrete scale with 2 values: 0, 1"><g transform="translate(0.5,0.5)"><path class="background" aria-hidden="true" d="M0,0h0v0h0Z" pointer-events="none"/><g><g class="mark-rule role-axis-tick" pointer-events="none"><line transform="translate(0,10)" x2="-5" y2="0" stroke="#888" stroke-width="1" opacity="1"/><line transform="translate(0,30)" x2="-5" y2="0" stroke="#888" stroke-width="1" opacity="1"/></g><g class="mark-text role-axis-label" pointer-events="none"><text text-anchor="end" transform="translate(-7,13)" font-family="CM Mono" font-size="10px" fill="#000" opacity="1">0</text><text text-anchor="end" transform="translate(-7,33)" font-family="CM Mono" font-size="10px" fill="#000" opacity="1">1</text></g><g class="mark-rule role-axis-domain" pointer-events="none"><line transform="translate(0,0)" x2="0" y2="40" stroke="#888" stroke-width="1" opacity="1"/></g></g><path class="foreground" aria-hidden="true" d="" pointer-events="none" display="none"/></g></g><g class="mark-symbol role-mark layer_0_marks" role="graphics-object" aria-roledescription="symbol mark container"><path aria-label="type: magnetic; year: Jan 01, 1932; accessability: 0" role="graphics-symbol" aria-roledescription="circle" transform="translate(13.32440983207593,10)" d="M5,0A5,5,0,1,1,-5,0A5,5,0,1,1,5,0" fill="#2476B6" stroke-width="2" opacity="1"/><path aria-label="type: cathode ray tube; year: Jan 01, 1946; accessability: 1" role="graphics-symbol" aria-roledescription="circle" transform="translate(106.66828912144074,30)" d="M5,0A5,5,0,1,1,-5,0A5,5,0,1,1,5,0" fill="#CD7DA9" stroke-width="2" opacity="1"/><path aria-label="type: magnetic; year: Jan 01, 1949; accessability: 1" role="graphics-symbol" aria-roledescription="circle" transform="translate(126.67315648576296,30)" d="M5,0A5,5,0,1,1,-5,0A5,5,0,1,1,5,0" fill="#2476B6" stroke-width="2" opacity="1"/><path aria-label="type: magnetic; year: Jan 01, 1952; accessability: 0" role="graphics-symbol" aria-roledescription="circle" transform="translate(146.65977123387685,10)" d="M5,0A5,5,0,1,1,-5,0A5,5,0,1,1,5,0" fill="#2476B6" stroke-width="2" opacity="1"/><path aria-label="type: magnetic; year: Jan 01, 1956; accessability: 1" role="graphics-symbol" aria-roledescription="circle" transform="translate(173.32684351423703,30)" d="M5,0A5,5,0,1,1,-5,0A5,5,0,1,1,5,0" fill="#2476B6" stroke-width="2" opacity="1"/><path aria-label="type: magnetic; year: Jan 01, 1960; accessability: 0" role="graphics-symbol" aria-roledescription="circle" transform="translate(199.99391579459723,10)" d="M5,0A5,5,0,1,1,-5,0A5,5,0,1,1,5,0" fill="#2476B6" stroke-width="2" opacity="1"/><path aria-label="type: magnetic; year: Jan 01, 1969; accessability: 1" role="graphics-symbol" aria-roledescription="circle" transform="translate(260.00851788756387,30)" d="M5,0A5,5,0,1,1,-5,0A5,5,0,1,1,5,0" fill="#2476B6" stroke-width="2" opacity="1"/><path aria-label="type: magnetic; year: Jan 01, 1970; accessability: 0" role="graphics-symbol" aria-roledescription="circle" transform="translate(266.67072280360185,10)" d="M5,0A5,5,0,1,1,-5,0A5,5,0,1,1,5,0" fill="#2476B6" stroke-width="2" opacity="1"/><path aria-label="type: optical; year: Jan 01, 1978; accessability: 1" role="graphics-symbol" aria-roledescription="circle" transform="translate(320.0048673643222,30)" d="M5,0A5,5,0,1,1,-5,0A5,5,0,1,1,5,0" fill="#BCBCBC" stroke-width="2" opacity="1"/><path aria-label="type: electronic; year: Jan 01, 1979; accessability: 1" role="graphics-symbol" aria-roledescription="circle" transform="translate(326.66707228036023,30)" d="M5,0A5,5,0,1,1,-5,0A5,5,0,1,1,5,0" fill="#E6A02E" stroke-width="2" opacity="1"/><path aria-label="type: optical; year: Jan 01, 1981; accessability: 1" role="graphics-symbol" aria-roledescription="circle" transform="translate(340.00973472864445,30)" d="M5,0A5,5,0,1,1,-5,0A5,5,0,1,1,5,0" fill="#BCBCBC" stroke-width="2" opacity="1"/><path aria-label="type: electro-mechanical; year: Jan 01, 1987; accessability: 0" role="graphics-symbol" aria-roledescription="circle" transform="translate(380.0012168410805,10)" d="M5,0A5,5,0,1,1,-5,0A5,5,0,1,1,5,0" fill="#D73F47" stroke-width="2" opacity="1"/><path aria-label="type: magneto-optical; year: Jan 01, 1991; accessability: 1" role="graphics-symbol" aria-roledescription="circle" transform="translate(406.66828912144075,30)" d="M5,0A5,5,0,1,1,-5,0A5,5,0,1,1,5,0" stroke-width="2" opacity="1"/><path aria-label="type: magnetic; year: Jan 01, 1994; accessability: 1" role="graphics-symbol" aria-roledescription="circle" transform="translate(426.67315648576295,30)" d="M5,0A5,5,0,1,1,-5,0A5,5,0,1,1,5,0" fill="#2476B6" stroke-width="2" opacity="1"/><path aria-label="type: electronic; year: Jan 01, 1995; accessability: 1" role="graphics-symbol" aria-roledescription="circle" transform="translate(433.335361401801,30)" d="M5,0A5,5,0,1,1,-5,0A5,5,0,1,1,5,0" fill="#E6A02E" stroke-width="2" opacity="1"/><path aria-label="type: magnetic; year: Jan 01, 1995; accessability: 0" role="graphics-symbol" aria-roledescription="circle" transform="translate(433.335361401801,10)" d="M5,0A5,5,0,1,1,-5,0A5,5,0,1,1,5,0" fill="#2476B6" stroke-width="2" opacity="1"/><path aria-label="type: optical; year: Jan 01, 1996; accessability: 1" role="graphics-symbol" aria-roledescription="circle" transform="translate(439.9975663178389,30)" d="M5,0A5,5,0,1,1,-5,0A5,5,0,1,1,5,0" fill="#BCBCBC" stroke-width="2" opacity="1"/><path aria-label="type: electronic; year: Jan 01, 2000; accessability: 1" role="graphics-symbol" aria-roledescription="circle" transform="translate(466.664638598199,30)" d="M5,0A5,5,0,1,1,-5,0A5,5,0,1,1,5,0" fill="#E6A02E" stroke-width="2" opacity="1"/><path aria-label="type: electronic; year: Jan 01, 2001; accessability: 1" role="graphics-symbol" aria-roledescription="circle" transform="translate(473.3450961304453,30)" d="M5,0A5,5,0,1,1,-5,0A5,5,0,1,1,5,0" fill="#E6A02E" stroke-width="2" opacity="1"/><path aria-label="type: optical; year: Jan 01, 2002; accessability: 1" role="graphics-symbol" aria-roledescription="circle" transform="translate(480.00730104648335,30)" d="M5,0A5,5,0,1,1,-5,0A5,5,0,1,1,5,0" fill="#BCBCBC" stroke-width="2" opacity="1"/><path aria-label="type: optical; year: Jan 01, 2004; accessability: 1" role="graphics-symbol" aria-roledescription="circle" transform="translate(493.33171087855925,30)" d="M5,0A5,5,0,1,1,-5,0A5,5,0,1,1,5,0" fill="#BCBCBC" stroke-width="2" opacity="1"/><path aria-label="type: optical; year: Jan 01, 2009; accessability: 1" role="graphics-symbol" aria-roledescription="circle" transform="translate(526.6792406911658,30)" d="M5,0A5,5,0,1,1,-5,0A5,5,0,1,1,5,0" fill="#BCBCBC" stroke-width="2" opacity="1"/><path aria-label="type: molecular; year: Jan 01, 2010; accessability: 0" role="graphics-symbol" aria-roledescription="circle" transform="translate(533.3414456072037,10)" d="M5,0A5,5,0,1,1,-5,0A5,5,0,1,1,5,0" stroke-width="2" opacity="1"/><path aria-label="type: atomic; year: Jan 01, 2014; accessability: 0" role="graphics-symbol" aria-roledescription="circle" transform="translate(560.0085178875639,10)" d="M5,0A5,5,0,1,1,-5,0A5,5,0,1,1,5,0" stroke-width="2" opacity="1"/><path aria-label="type: atomic; year: Jan 01, 2016; accessability: 1" role="graphics-symbol" aria-roledescription="circle" transform="translate(573.3329277196398,30)" d="M5,0A5,5,0,1,1,-5,0A5,5,0,1,1,5,0" stroke-width="2" opacity="1"/><path aria-label="type: molecular; year: Jan 01, 2010; accessability: 0" role="graphics-symbol" aria-roledescription="circle" transform="translate(533.3414456072037,10)" d="M5,0A5,5,0,1,1,-5,0A5,5,0,1,1,5,0" stroke-width="2" opacity="1"/><path aria-label="type: molecular; year: Jan 01, 2019; accessability: 0" role="graphics-symbol" aria-roledescription="circle" transform="translate(593.3377950839621,10)" d="M5,0A5,5,0,1,1,-5,0A5,5,0,1,1,5,0" stroke-width="2" opacity="1"/></g><g class="mark-symbol role-mark layer_1_marks" role="graphics-object" aria-roledescription="symbol mark container"><path aria-label="type: magneto-optical; year: Jan 01, 1991; accessability: 1" role="graphics-symbol" aria-roledescription="circle" transform="translate(406.66828912144075,30)" d="M3.872983346207417,0A3.872983346207417,3.872983346207417,0,1,1,-3.872983346207417,0A3.872983346207417,3.872983346207417,0,1,1,3.872983346207417,0" fill="#BCBCBC" stroke="#2476B6" stroke-width="2" opacity="0.55"/></g><g class="mark-symbol role-mark layer_2_marks" role="graphics-object" aria-roledescription="symbol mark container"><path aria-label="type: atomic; year: Jan 01, 2014; accessability: 0" role="graphics-symbol" aria-roledescription="circle" transform="translate(560.0085178875639,10)" d="M3.872983346207417,0A3.872983346207417,3.872983346207417,0,1,1,-3.872983346207417,0A3.872983346207417,3.872983346207417,0,1,1,3.872983346207417,0" fill="white" stroke="gray" stroke-width="2" opacity="0.3"/><path aria-label="type: atomic; year: Jan 01, 2016; accessability: 1" role="graphics-symbol" aria-roledescription="circle" transform="translate(573.3329277196398,30)" d="M3.872983346207417,0A3.872983346207417,3.872983346207417,0,1,1,-3.872983346207417,0A3.872983346207417,3.872983346207417,0,1,1,3.872983346207417,0" fill="white" stroke="gray" stroke-width="2" opacity="0.3"/></g><g class="mark-symbol role-mark layer_3_marks" role="graphics-object" aria-roledescription="symbol mark container"><path aria-label="type: molecular; year: Jan 01, 2010; accessability: 0" role="graphics-symbol" aria-roledescription="circle" transform="translate(533.3414456072037,10)" d="M3.872983346207417,0A3.872983346207417,3.872983346207417,0,1,1,-3.872983346207417,0A3.872983346207417,3.872983346207417,0,1,1,3.872983346207417,0" fill="white" stroke="black" stroke-width="2" opacity="0.8"/><path aria-label="type: molecular; year: Jan 01, 2010; accessability: 0" role="graphics-symbol" aria-roledescription="circle" transform="translate(533.3414456072037,10)" d="M3.872983346207417,0A3.872983346207417,3.872983346207417,0,1,1,-3.872983346207417,0A3.872983346207417,3.872983346207417,0,1,1,3.872983346207417,0" fill="white" stroke="black" stroke-width="2" opacity="0.8"/><path aria-label="type: molecular; year: Jan 01, 2019; accessability: 0" role="graphics-symbol" aria-roledescription="circle" transform="translate(593.3377950839621,10)" d="M3.872983346207417,0A3.872983346207417,3.872983346207417,0,1,1,-3.872983346207417,0A3.872983346207417,3.872983346207417,0,1,1,3.872983346207417,0" fill="white" stroke="black" stroke-width="2" opacity="0.8"/></g></g><path class="foreground" aria-hidden="true" d="" display="none"/></g></g></g></svg>